<?xml version="1.0" encoding="UTF-8" standalone="no"?>
<!-- Created with Inkscape (http://www.inkscape.org/) -->

<svg
   version="1.1"
   id="svg1"
   width="553"
   height="483"
   viewBox="0 0 553 483"
   xmlns="http://www.w3.org/2000/svg"
   xmlns:svg="http://www.w3.org/2000/svg">
  <defs
     id="defs1" />
  <g
     id="g1">
    <path
       style="fill:#000000"
       d="M 54.183578,480.25 54.5,477.5 279.25,477.24781 504,476.99562 V 479.99781 483 H 278.93358 53.867155 Z M 0,466 v -3 h 276 276 v 3 3 H 276 0 Z m 404,-19.88499 c 0,-0.48674 1.125,-1.62212 2.5,-2.52305 3.26488,-2.13923 3.1712,-4.93087 -0.25,-7.45025 -2.27107,-1.67242 -2.55828,-2.34003 -1.64914,-3.83341 1.68798,-2.77271 5.90634,-2.84996 7.80245,-0.14289 3.21384,4.5884 1.29472,10.38802 -4.41435,13.3403 C 404.64551,447.23467 404,447.33327 404,446.11501 Z M 24,438.30138 C 24,437.58562 24.860234,437 25.911631,437 c 1.453516,0 2.57066,-1.73743 4.661649,-7.25 1.512511,-3.9875 4.027277,-10.5465 5.58837,-14.57556 C 37.722742,411.14538 39,407.39252 39,406.83473 c 0,-1.20588 4.071464,-4.75625 5.5,-4.79607 0.55,-0.0153 3.198876,6.6072 5.886392,14.71673 6.533353,19.71429 6.9286,20.44014 10.919882,20.05377 L 64.5,436.5 64.776098,421.24045 65.052195,405.9809 62.526098,404.82994 C 58.089191,402.80835 59.778728,402 68.440983,402 c 8.844613,0 11.179043,0.94084 7.02766,2.83233 -2.452068,1.11724 -2.46854,1.21726 -2.45333,14.89623 0.0084,7.57429 0.382334,14.34988 0.830915,15.05687 1.152831,1.81692 7.140905,2.57318 10.416063,1.31548 1.51926,-0.58342 3.278991,-2.19479 3.910515,-3.58083 1.614519,-3.54349 4.070914,-3.36686 3.197537,0.22992 -1.642032,6.76228 0.243894,6.25359 -24.147926,6.51334 C 49.983765,439.44692 44.998978,439.21962 44.999425,438.25 44.999741,437.5625 45.675,437 46.5,437 c 1.803624,0 1.862555,-1.05786 0.341712,-6.13398 C 45.703284,427.06628 45.599988,427 40.816962,427 c -4.293258,0 -4.980395,0.29966 -5.83373,2.5441 -2.261556,5.94835 -2.238456,7.15589 0.148836,7.78019 3.714119,0.97126 1.338256,1.95834 -5.112243,2.12393 C 25.664707,439.56003 24,439.24288 24,438.30138 Z M 43.452053,420.75 c -0.388772,-1.7875 -1.154881,-4.375 -1.702465,-5.75 l -0.995606,-2.5 -1.32291,3.11043 c -0.727601,1.71074 -1.62103,4.29824 -1.985399,5.75 C 36.819379,423.85579 36.984672,424 40.471047,424 c 3.638996,0 3.678497,-0.0431 2.981006,-3.25 z m 47.892281,17.99813 c -0.255575,-0.41353 0.687396,-1.18989 2.095492,-1.72525 L 96,436.0495 v -15.04619 -15.04619 l -2.5,-1.13907 C 89.029818,402.7813 90.831924,402 100,402 c 9.16808,0 10.97018,0.7813 6.5,2.81805 l -2.5,1.13907 v 15.04619 15.04619 L 106.5,437 c 1.375,0.52277 2.5,1.29914 2.5,1.72525 0,0.99761 -17.039601,1.01969 -17.655666,0.0229 z m 18.996796,-0.005 c -0.25734,-0.41639 0.34813,-1.05856 1.34549,-1.42706 0.99736,-0.3685 2.14399,-1.15282 2.54807,-1.74294 0.40408,-0.59012 0.74158,-7.49509 0.75,-15.34438 0.0153,-14.25886 0.0131,-14.27244 -2.48469,-15.41051 -4.11962,-1.87703 -2.86409,-2.81842 3.75,-2.81173 5.75925,0.006 6.37465,0.22176 7.83747,2.75 0.8731,1.50903 5.1481,7.01868 9.5,12.24368 l 7.91253,9.5 0.30649,-7.5 c 0.42966,-10.51412 -0.29642,-13.65517 -3.3327,-14.41722 C 133.65688,403.37381 136.06443,402 143,402 c 7.34944,0 8.48005,0.77352 4.75,3.24973 -2.15723,1.43209 -2.26455,2.17929 -2.60277,18.12197 -0.32207,15.18082 -0.50861,16.6283 -2.14301,16.6283 -0.98463,0 -2.00858,-0.5625 -2.27544,-1.25 -0.26686,-0.6875 -5.15251,-7.1 -10.85699,-14.25 L 119.5,411.5 119.21548,422.93886 C 118.89441,435.84739 119.12009,437 121.96862,437 c 1.11726,0 2.03138,0.5625 2.03138,1.25 0,1.38614 -12.82088,1.84883 -13.65887,0.49294 z m 53.00272,0.005 c -0.25531,-0.41353 0.68788,-1.18989 2.09598,-1.72525 L 168,436.0495 v -15.41634 -15.41634 l -2.5,-0.62746 C 160.87209,403.42783 162.95006,402 169.26838,402 c 5.57062,0 6.43331,0.27122 7.75,2.43646 0.81489,1.34005 5.08162,6.75894 9.48162,12.04196 l 8,9.60551 0.29505,-8.29197 c 0.37083,-10.42152 -0.12951,-12.4081 -3.32724,-13.21068 C 187.02239,403.46555 189.87948,402 196.5,402 c 6.95658,0 8.83493,1.07074 4.96864,2.83233 L 199,405.95712 v 15.43965 C 199,437.25007 198.64683,440 196.61081,440 c -0.64637,0 -6.03558,-6.07153 -11.97603,-13.49229 -5.94044,-7.42076 -11.21345,-13.74731 -11.71779,-14.05901 -1.09284,-0.67542 -1.23796,21.50845 -0.15168,23.18562 0.40408,0.62387 1.60269,1.29887 2.66358,1.5 1.06089,0.20112 1.73589,0.77305 1.5,1.27095 -0.51863,1.09467 -12.92754,1.40785 -13.58504,0.34286 z m 43.22758,-0.31956 C 205.70714,437.56429 205,436.24643 205,435.5 c 0,-0.74643 0.70714,-2.06429 1.57143,-2.92857 C 209.59184,429.55101 214,431.28885 214,435.5 c 0,4.21115 -4.40816,5.94899 -7.42857,2.92857 z m 29.08376,0.11278 c -4.95158,-1.76548 -8.4529,-5.03139 -10.76515,-10.04135 -2.11503,-4.58267 -2.30646,-7.46046 -0.84603,-12.71895 2.45001,-8.82166 10.11479,-13.73197 21.45599,-13.74543 10.32066,-0.0122 11.22673,0.39675 11.75416,5.30582 0.58382,5.43391 -0.66702,6.69465 -2.71425,2.73573 -3.97842,-7.69341 -14.13593,-7.66696 -19.24285,0.0501 -4.90705,7.41507 -3.27622,19.59754 3.31782,24.78441 5.22189,4.10754 15.06837,1.81236 16.8934,-3.93779 0.34457,-1.08565 1.27117,-1.97391 2.05911,-1.97391 1.70328,0 1.73189,0.38225 0.3902,5.21317 -0.86231,3.10485 -1.63957,3.88211 -4.74442,4.74442 -5.09705,1.4156 -12.94188,1.22963 -17.55798,-0.41624 z m 23.68999,0.20678 c -0.25604,-0.41353 0.69831,-1.19436 2.12077,-1.73518 l 2.5863,-0.98331 -0.27612,-15.23659 C 263.5105,406.1358 263.41467,405.51396 261.25593,404.43897 257.73912,402.6877 259.68768,402 268.16667,402 c 8.05337,0 9.3104,0.59646 5.83333,2.76793 -1.66633,1.04064 -2,2.33202 -2,7.74054 V 419 h 8 8 v -6.93261 c 0,-6.05436 -0.25337,-7.01303 -2,-7.56739 -1.1,-0.34913 -2,-1.05445 -2,-1.56739 0,-1.26033 15.7191,-1.19614 16.5,0.0674 0.33992,0.55 0.17362,1 -0.36955,1 -0.54318,0 -1.69474,0.70714 -2.55902,1.57143 -1.27706,1.27706 -1.56856,4.1338 -1.55612,15.25 0.008,7.52321 0.34592,14.16139 0.75,14.75151 0.40408,0.59012 1.5866,1.38821 2.62782,1.77354 3.39818,1.25758 0.73812,2.00494 -7.40302,2.07992 -5.76498,0.0531 -7.99037,-0.27454 -7.99026,-1.1764 8e-5,-0.6875 0.90015,-1.25 2.00015,-1.25 1.82222,0 2,-0.66667 2,-7.5 V 422 h -8.04381 -8.04381 l 0.29381,7.25 c 0.26961,6.65277 0.47916,7.27632 2.54381,7.56955 1.2375,0.17575 2.25,0.85747 2.25,1.51492 0,1.34057 -16.83667,1.73506 -17.65482,0.41366 z M 302,438.25 c 0,-0.6875 1.125,-1.25 2.5,-1.25 h 2.5 v -15.88337 c 0,-15.04236 -0.1059,-15.91106 -2,-16.40638 -1.1,-0.28766 -2,-1.01514 -2,-1.61663 C 303,402.3546 307.50533,402 316.89496,402 h 13.89497 l 0.45551,4.25 c 0.58271,5.43666 -0.63774,6.82585 -2.62336,2.98608 C 326.81893,405.74917 325.27962,405 319.91821,405 H 316 v 7.06037 7.06036 l 3.75,-0.31036 c 2.75631,-0.22813 4.01157,-0.90658 4.73713,-2.56037 1.7721,-4.03921 3.0157,-2.44246 2.92439,3.75484 -0.10111,6.86292 -0.90836,8.44876 -2.35879,4.63385 C 324.19792,422.39036 323.4541,422 320.02475,422 H 316 v 6.52144 c 0,5.93087 0.21947,6.62143 2.42347,7.62565 3.66421,1.66952 9.08398,0.22698 11.95169,-3.18109 1.37265,-1.6313 2.74977,-2.966 3.06028,-2.966 0.89129,0 0.65953,3.42911 -0.44611,6.60078 L 331.97865,439.5 H 316.98933 C 305.66453,439.5 302,439.1944 302,438.25 Z m 32.99985,0 C 334.99993,437.5625 335.9,437 337,437 c 1.91667,0 2,-0.66667 2,-16 0,-15.33333 -0.0833,-16 -2,-16 -2.70947,0 -2.5383,-1.62248 0.25,-2.36971 3.53817,-0.9482 15.91351,-0.73058 19.66673,0.34583 8.42788,2.41708 10.95558,10.53832 5.00897,16.09329 l -3.0743,2.87183 3.18387,5.97355 c 3.57622,6.70968 6.24887,9.57389 8.22572,8.8153 0.73452,-0.28186 3.94325,-7.51218 7.13051,-16.06738 4.36949,-11.72851 6.40841,-15.95681 8.28853,-17.18871 1.37142,-0.89859 2.61438,-1.48535 2.76212,-1.3039 0.14774,0.18144 2.88421,7.90725 6.08103,17.16845 4.81164,13.93931 6.21397,16.99121 8.14462,17.72525 4.42549,1.68256 2.30686,2.55032 -5.73081,2.34724 -8.23314,-0.20802 -11.0908,-1.03505 -7.14332,-2.06733 1.21348,-0.31734 2.20633,-0.66933 2.20633,-0.7822 0,-0.11288 -0.72473,-2.33219 -1.6105,-4.9318 l -1.61051,-4.72656 -5.03378,0.29842 c -5.02673,0.29801 -5.03566,0.30473 -6.37432,4.79843 -0.73729,2.475 -1.34736,4.6125 -1.35571,4.75 -0.008,0.1375 0.88482,0.25 1.98482,0.25 1.1,0 2,0.5807 2,1.29045 0,0.95918 -2.25756,1.28007 -8.79406,1.25 -10.83705,-0.0499 -12.97769,-1.24795 -16.87086,-9.4425 -4.46141,-9.39064 -7.33508,-9.3962 -7.33508,-0.0142 0,5.52693 0.19409,6.03952 2.63869,6.96896 4.10498,1.56071 2.05237,2.29353 -6.64858,2.37367 -5.76498,0.0531 -7.99037,-0.27454 -7.99026,-1.1764 z M 387,422.94282 C 387,420.6547 384.72085,413 384.03957,413 c -0.39765,0 -1.27632,1.84684 -1.95261,4.10409 -0.67629,2.25725 -1.47066,4.73225 -1.76528,5.5 -0.39737,1.03555 0.3955,1.39591 3.07133,1.39591 1.98385,0 3.60699,-0.47573 3.60699,-1.05718 z m -32.99023,-3.74964 c 1.72473,-1.39661 2.21743,-2.81396 2.17011,-6.24275 C 356.11129,407.98035 353.56569,405 349.38922,405 347.08746,405 347,405.26845 347,412.33333 c 0,4.03334 0.3,7.63334 0.66667,8 1.21016,1.21017 4.07694,0.69487 6.3431,-1.14015 z M 428,439.04496 c -6.92379,-0.54904 -7.28872,-0.68695 -4.75,-1.79509 L 426,436.0495 v -15.11837 c 0,-14.27737 -0.11126,-15.14746 -2,-15.64138 -1.1,-0.28766 -2,-0.90014 -2,-1.36107 0,-2.69084 22.78686,-2.34833 29.38872,0.44174 12.63505,5.33981 14.3015,23.51205 2.85102,31.08962 -3.53005,2.33608 -13.32287,4.80932 -17.23974,4.35401 -0.825,-0.0959 -4.875,-0.44199 -9,-0.76909 z m 16.82388,-3.13341 c 4.12925,-1.43946 7.1855,-6.60227 7.8775,-13.30715 1.07727,-10.43772 -5.35095,-18.16996 -14.47656,-17.41326 L 434.5,405.5 l -0.27993,13.37985 c -0.37102,17.73373 1.22701,20.30047 10.60381,17.0317 z m 22.92612,3.3904 C 464.0375,439.08562 461,438.47918 461,437.95431 461,437.42944 461.85186,437 462.89301,437 c 2.74469,0 3.10852,-1.80324 3.09334,-15.33179 C 465.97132,408.27908 465.45925,405 463.38337,405 c -2.38817,0 -1.50458,-1.93147 1.19337,-2.60862 4.28648,-1.07584 22.63739,0.2452 26.42326,1.90215 9.81649,4.29635 13.38502,16.25466 7.73012,25.90401 -4.44807,7.59006 -13.13869,10.14405 -30.98012,9.10441 z m 19.46563,-4.9672 c 4.8281,-4.29933 6.38294,-15.70623 3.03282,-22.24994 C 488.14428,407.97479 482.90294,405 477.7656,405 H 474 v 14.95031 c 0,13.16248 0.20927,15.07877 1.75,16.02457 2.43919,1.49732 8.99553,0.55945 11.46563,-1.64013 z m 17.81898,4.38823 c -1.61456,-0.817 -2.77709,-2.56555 -3.36859,-5.06667 -1.22739,-5.18994 0.56625,-7.04161 2.74317,-2.83192 2.09574,4.05271 5.30461,6.17561 9.33476,6.17561 2.58002,0 3.5564,-0.56509 4.48042,-2.5931 1.63879,-3.59675 -0.44151,-7.02701 -6.75801,-11.14348 C 505.16899,419.15942 503,416.51371 503,412.93627 503,405.70329 507.64061,402 516.70429,402 c 3.25222,0 6.43376,0.53805 7.09571,1.2 0.66,0.66 1.2,2.98488 1.2,5.16639 v 3.96639 l -3.84639,-4.16639 C 516.86192,403.51765 514.93774,403.06226 512,406 c -3.72499,3.72499 -2.08531,6.44532 7.3069,12.12254 12.70974,7.68253 7.81098,21.91551 -7.52478,21.86272 -2.35517,-0.008 -5.39155,-0.57613 -6.74751,-1.26228 z M 0,376 v -3 h 46.583333 c 25.620834,0 46.433334,-0.3375 46.25,-0.75 C 92.65,371.8375 89.183212,366.55 85.12936,360.5 65.645892,331.42272 51.833074,293.02121 47.898355,256.99274 46.409995,243.36449 47.318986,208.65523 49.495678,196 60.713818,130.77803 97.28645,74.470185 151.61257,38.779089 201.4538,6.0344708 260.76257,-6.262075 319.19797,4.0334417 384.92061,15.612872 442.09798,54.531602 477.22402,111.59652 524.55734,188.49309 522.73864,286.34543 472.5822,361.34207 468.96199,366.75521 466,371.59271 466,372.09207 466,372.6219 483.90702,373 509,373 h 43 v 3 3 H 276 0 Z m 176,-3.88131 c 0,-0.48472 -1.6875,-2.15037 -3.75,-3.70145 C 152.74709,353.75035 134.71821,331.27848 123.4686,307.6143 105.96848,270.80179 102.001,231.61514 111.58846,190.27479 116.19981,170.39106 131.81412,139.22744 144.54445,124.5 169.98319,95.0705 194.83274,78.309766 229,67.535711 c 21.22162,-6.691871 49.78193,-9.127503 71.5,-6.097541 40.06059,5.588989 72.71156,21.653448 100.58629,49.48901 34.56845,34.51989 52.50593,80.16092 50.53069,128.57282 -1.80101,44.14144 -19.3964,84.33919 -50.57675,115.54572 -6.71999,6.72564 -16.43081,15.19583 -18.10002,15.78761 -0.51711,0.18334 -0.94021,0.74584 -0.94021,1.25 0,0.53919 15.37834,0.91667 37.34501,0.91667 34.31982,0 37.46839,-0.14176 38.86802,-1.75 0.83765,-0.9625 4.6705,-6.475 8.51744,-12.25 21.47761,-32.24198 33.64347,-66.45196 37.34044,-105 1.25798,-13.11691 0.68269,-43.68253 -0.97872,-52 -0.49438,-2.475 -1.18986,-6.75 -1.54551,-9.5 -1.24294,-9.61072 -6.67353,-28.68422 -12.21886,-42.9155 C 469.45504,98.583861 427.86689,53.751369 378.07562,29.653396 363.6478,22.670619 361.17547,21.696814 346.20629,17.100684 280.6483,-3.0282215 209.57615,7.2163589 153.52301,44.874706 129.11311,61.274079 106.29689,84.280189 90.2648,108.6594 86.102601,114.98865 75,134.38465 75,135.32666 c 0,0.29001 -1.605,4.002 -3.566668,8.24887 C 64.533676,158.5128 58.583561,179.74188 55.338319,201 c -2.442456,15.99944 -2.411233,48.10179 0.06273,64.5 5.658462,37.506 18.968403,69.75155 42.411949,102.75 l 3.374612,4.75 h 37.4062 C 159.5062,373 176,372.6114 176,372.11869 Z M 100.17171,344.73478 C 98.182262,343.78609 92.264371,334.30352 93.182767,333.53602 94.030346,332.8277 97.959212,331 98.634259,331 99.055416,331 98.86,331.54 98.2,332.2 c -3.323694,3.32369 0.449665,11.68074 4.66936,10.34146 3.07867,-0.97713 4.10671,-4.2874 3.06432,-9.86704 -1.0869,-5.81793 0.13248,-9.36888 3.68047,-10.71782 5.63758,-2.1434 11.16289,2.15416 13.81005,10.74141 0.54879,1.78023 0.08,2.507 -2.46624,3.82373 -3.45087,1.78451 -4.88705,1.49423 -2.48213,-0.50168 C 122.08589,333.02397 119.10106,324 114.5,324 c -3.97343,0 -5.4403,3.31408 -4.81325,10.87453 0.46839,5.64752 0.27375,6.86632 -1.31863,8.25719 -2.6653,2.32802 -5.5096,2.88431 -8.19641,1.60306 z M 450,338.8643 c -4.675,-1.02993 -10.6375,-1.7118 -13.25,-1.51525 -2.6125,0.19655 -4.75,0.18259 -4.75,-0.031 0,-0.21361 0.69683,-1.45189 1.54852,-2.75172 1.51326,-2.30954 1.67813,-2.33321 7.24175,-1.03991 3.13128,0.72789 5.75752,1.24473 5.8361,1.14852 0.0786,-0.0962 1.06466,-1.70693 2.1913,-3.5794 l 2.04844,-3.40449 -2.60207,-3.4115 c -2.03611,-2.66946 -3.10335,-3.28568 -4.90667,-2.83308 l -2.30458,0.57842 2.06415,-3.49849 2.06416,-3.49848 2.15945,3.96021 c 1.1877,2.17812 4.63445,7.1067 7.65945,10.95241 4.03911,5.13496 5.96771,6.84951 7.26083,6.45502 1.55773,-0.47522 1.62572,-0.24065 0.58949,2.03364 -1.3415,2.94426 -1.44518,2.94777 -12.85032,0.43513 z m 8,-2.2268 c 0,-0.19937 -1.32209,-2.02613 -2.93798,-4.05946 l -2.93799,-3.69697 -1.69747,2.59067 c -2.01785,3.07962 -1.63353,3.60972 3.3124,4.56888 2.06857,0.40116 3.87354,0.78113 4.01104,0.84438 0.1375,0.0632 0.25,-0.0481 0.25,-0.2475 z m 18,-30.51618 c 0,-2.00272 -0.67735,-2.34516 -13.2439,-6.69551 -6.64824,-2.30152 -7.97741,-2.48703 -9.39425,-1.31116 -1.48021,1.22847 -1.57016,1.11276 -0.87257,-1.12249 0.42778,-1.37069 1.21403,-3.61716 1.74723,-4.99216 0.95278,-2.457 0.98355,-2.46341 1.78888,-0.37265 0.58433,1.51703 3.29525,3.02321 9.44928,5.25 9.52452,3.44637 11.49021,3.71997 13.45444,1.87265 1.09244,-1.02742 1.21566,-0.76818 0.69202,1.4559 -1.53064,6.501 -3.62113,9.916 -3.62113,5.91542 z m -396.888113,-4.5561 c -0.959968,-2.3421 -0.941266,-3.08464 0.09261,-3.67683 3.90988,-2.23952 18.415293,-14.72829 19.391959,-16.69596 0.966945,-1.94809 1.243382,-2.05219 1.774464,-0.66822 1.31651,3.43077 0.48963,5.2369 -3.811767,8.32593 l -4.440848,3.18917 1.285775,3.73035 c 1.190893,3.45506 1.608165,3.7538 5.654583,4.04828 3.133427,0.22804 4.701037,-0.13641 5.543707,-1.28883 1.01863,-1.39305 1.32333,-1.181 2.29078,1.59422 0.61373,1.76054 0.98914,3.32772 0.83424,3.48261 -0.15489,0.15489 -2.06942,-0.0945 -4.2545,-0.5542 -2.18509,-0.45971 -8.099798,-1.12289 -13.143796,-1.47375 -8.272497,-0.57542 -9.212218,-0.46354 -9.59261,1.14205 -0.331001,1.39712 -0.680427,1.14873 -1.624597,-1.15482 z M 92.454993,297.75 c -1.099117,-3.63795 -2.126444,-4.08775 -4.8251,-2.11261 -4.33956,3.17612 -4.076056,4.36261 0.968879,4.36261 4.238754,0 4.491456,-0.14745 3.856221,-2.25 z M 484.49489,274.50138 c -0.63442,-0.95562 -5.09802,-2.19034 -12.31929,-3.40773 -6.22843,-1.05002 -11.54643,-2.13114 -11.81778,-2.4025 -0.64229,-0.64229 10.51979,-8.53899 17.9377,-12.69018 3.18753,-1.7838 5.65006,-3.38872 5.47228,-3.5665 -0.17778,-0.17779 -3.91077,-0.77182 -8.29552,-1.32009 -6.54722,-0.81866 -8.37447,-0.7351 -10.22228,0.46744 -2.54361,1.65536 -2.74066,1.12146 -1.63199,-4.42187 0.60225,-3.01124 0.65963,-3.0398 2.25,-1.11979 2.32258,2.804 21.14023,5.6965 22.40116,3.44334 1.38917,-2.4823 2.4106,-1.66168 1.93818,1.55712 -0.34776,2.3694 -1.3581,3.49489 -4.57681,5.09842 -5.35866,2.66964 -18.60092,11.18254 -18.61762,11.9685 -0.0139,0.65259 10.17423,1.89246 15.55044,1.89246 1.79848,0 3.47087,-0.5625 3.7164,-1.25 0.8462,-2.36934 1.43531,-0.24128 0.96891,3.5 -0.50415,4.04411 -1.19091,4.60558 -2.75378,2.25138 z M 69.566008,264.29817 c -0.670195,-3.04913 -0.235466,-3.65273 9.115116,-12.65584 5.400382,-5.1997 9.525328,-9.75242 9.166548,-10.11716 -0.358781,-0.36474 -4.30825,-0.12859 -8.776598,0.52477 -5.948278,0.86975 -8.482597,1.6995 -9.462117,3.09796 -1.224383,1.74806 -1.386304,1.54877 -1.90921,-2.34978 -0.612091,-4.56348 -0.115971,-6.08962 1.257295,-3.86763 0.68556,1.10926 3.297648,1.23649 13.616089,0.66318 14.950849,-0.83068 14.846209,-1.99766 1.083367,12.08215 l -8.96925,9.17582 4.406376,-0.47066 c 11.482198,-1.22645 13.037165,-1.60499 14.927449,-3.63397 L 96,254.62288 v 4.75999 c 0,4.44617 -0.110084,4.6499 -1.669747,3.09024 -1.367245,-1.36724 -2.861871,-1.55574 -8.25,-1.04044 -12.476965,1.19325 -14.169634,1.63482 -15.014425,3.91689 -0.728113,1.96689 -0.85613,1.87715 -1.49982,-1.05139 z M 464,224.99431 c 0,-2.2215 1.13687,-3.83388 5,-7.09132 2.88321,-2.43116 5,-5.05062 5,-6.18733 0,-1.75619 -0.46372,-1.89914 -4.25,-1.31014 -2.3375,0.36363 -4.75928,1.33437 -5.38173,2.1572 -0.99697,1.31791 -1.20536,1.3042 -1.75,-0.11512 C 462.27822,211.56145 462,209.21222 462,207.22708 c 0,-3.31662 0.1121,-3.45604 1.38218,-1.71909 1.29348,1.76893 2.07626,1.82347 12.19712,0.84978 6.45423,-0.62093 10.97066,-1.50764 11.20115,-2.19911 0.98022,-2.94066 2.0777,-0.54989 2.73021,5.94752 0.91718,9.13281 -0.33055,11.89382 -5.37492,11.89382 -2.44449,0 -4.36765,-0.80606 -6.26878,-2.62746 l -2.74248,-2.62746 -5.56224,5.56224 C 464.05861,227.81095 464,227.83927 464,224.99431 Z m 21.77749,-7.55101 c 1.56497,-1.09615 2.22251,-2.57542 2.22251,-5 0,-3.31468 -0.14007,-3.44279 -3.75,-3.42965 -5.95626,0.0217 -8.25,0.96156 -8.25,3.38048 0,5.54138 5.22356,8.23886 9.77749,5.04917 z M 70.751719,215.78034 c -2.125633,-0.73157 -2.639803,-1.43687 -2.269477,-3.1131 0.263341,-1.19198 0.974323,-5.9915 1.57996,-10.66559 0.605636,-4.67409 1.176901,-8.54775 1.269478,-8.60814 0.09258,-0.0604 1.51832,0.48107 3.16832,1.20324 1.785169,0.78134 2.305596,1.33131 1.285184,1.35815 C 73.859931,196.00553 72,198.87934 72,201.80343 c 0,1.68143 1.155158,2.08306 8.817725,3.06574 11.268142,1.44508 13.911153,1.4233 14.462037,-0.11917 0.879121,-2.46154 1.36035,-0.16598 0.943355,4.5 -0.435326,4.87109 -1.605661,6.21916 -2.483828,2.86104 -0.489208,-1.87073 -2.264486,-2.31409 -18.989289,-4.74237 -3.624881,-0.5263 -3.75,-0.44382 -3.75,2.472 0,1.65906 0.728571,3.74504 1.619048,4.63552 2.094756,2.09476 1.54516,2.4786 -1.867329,1.30415 z m 28.283716,-31.00089 c -0.01949,-0.94631 -4.166598,-5.32155 -9.215797,-9.72276 -7.631006,-6.65168 -9.432343,-7.79584 -10.673415,-6.77945 -1.27275,1.04234 -1.395704,0.85388 -0.833293,-1.27724 0.362869,-1.375 0.665905,-2.8375 0.673415,-3.25 0.0075,-0.4125 5.38436,-0.75 11.948555,-0.75 6.564196,0 13.0892,-0.43886 14.5,-0.97525 2.95284,-1.12267 3.47286,0.35156 1.21379,3.44102 -1.12968,1.54493 -2.20247,1.74722 -6.54083,1.23341 -4.719323,-0.55893 -5.264317,-0.41459 -6.015155,1.5931 -2.277384,6.08958 -2.243761,6.28082 1.583023,9.00362 2.772392,1.97258 4.032345,2.36134 5.013622,1.54695 1.82354,-1.5134 1.69998,1.85212 -0.18935,5.15715 -1.06625,1.86521 -1.438127,2.06312 -1.464565,0.77945 z M 91.850155,170 l 1.045806,-3 -4.697981,0.0293 -4.69798,0.0293 3.265777,2.97068 C 88.561954,171.66319 90.205432,173 90.417951,173 c 0.212519,0 0.857011,-1.35 1.432204,-3 z M 460.03002,181.72069 C 456.13432,179.74944 453,174.29507 453,169.48698 c 0,-7.2651 5.94407,-12.49042 14.20034,-12.48324 13.57393,0.0118 18.902,17.08521 7.50111,24.03674 -3.6771,2.24207 -10.92107,2.57792 -14.67143,0.68021 z m 10.56891,-3.62612 c 4.23123,-1.9216 8.40107,-6.66101 8.40107,-9.5486 0,-3.08229 -3.02973,-7.51533 -5.57247,-8.15352 -3.38827,-0.8504 -9.07328,0.14542 -12.08104,2.11618 -3.82596,2.50686 -6.50914,7.52054 -5.88229,10.99137 1.13066,6.26034 7.32568,8.14101 15.13473,4.59457 z M 435.25,134.50165 c -2.71141,-4.18593 -2.78575,-4.80646 -0.48845,-4.07733 2.33306,0.74048 19.15657,-9.02875 20.1437,-11.69723 0.6386,-1.72629 1.42742,-0.94131 5.36486,5.33875 l 4.61619,7.36261 -3.05796,1.28577 c -4.11107,1.72858 -4.44937,1.62949 -2.35144,-0.6887 1.55004,-1.71277 1.6196,-2.37835 0.52478,-5.02145 -1.75824,-4.24477 -2.4639,-4.43429 -7.00589,-1.88155 -4.64483,2.61054 -4.9147,4.2443 -1.52593,9.23793 3.36467,4.95811 1.49889,4.60611 -2.75968,-0.52065 l -3.4557,-4.1602 -3.70928,2.29247 c -2.67769,1.6549 -3.57345,2.8119 -3.22086,4.1602 0.76043,2.90791 -0.60294,2.18478 -3.07434,-1.63062 z M 129,122.42043 C 129,118.98073 115.34526,107 111.42494,107 c -2.40491,0 -2.39675,-0.0346 1.18354,-5.01812 1.98284,-2.75996 4.55722,-5.68496 5.72085,-6.499996 5.02881,-3.522315 10.12522,-0.166558 10.12522,6.667006 v 3.98913 l 7.77507,-0.31901 c 4.27629,-0.17546 7.77402,-0.0513 7.77273,0.276 -0.001,0.32726 -0.83561,1.3491 -1.85404,2.27077 -1.52672,1.38166 -3.08167,1.56144 -8.86026,1.02437 -8.67936,-0.80666 -10.17603,0.53375 -5.38038,4.81866 2.18616,1.95334 3.85026,2.68541 5.15962,2.26983 2.67505,-0.84902 2.35984,0.42655 -1.10793,4.48359 -2.47624,2.89701 -2.95936,3.13506 -2.95936,1.4582 z m -3.5567,-14.64294 c 4.72022,-6.73906 -3.16582,-13.205155 -9.19594,-7.54014 l -2.38155,2.23735 4.31709,3.73281 c 2.37441,2.05304 4.62908,3.74624 5.0104,3.76265 0.38131,0.0164 1.39381,-0.97029 2.25,-2.19267 z m 291.98997,2.97251 -2.74452,-3.25 2.59982,-0.31104 c 3.17135,-0.37941 16.44765,-12.39413 16.89624,-15.290678 0.28119,-1.815639 0.69272,-1.635271 3.81519,1.672158 3.12871,3.314038 3.25544,3.64794 1.19459,3.147569 -3.13367,-0.76085 -18.60358,12.610021 -17.86358,15.439761 0.72779,2.7831 -0.83549,2.21848 -3.89774,-1.40777 z M 394,88.332606 c -5.59982,-4.647246 -7.33984,-6.78398 -4.69928,-5.770702 0.95955,0.368211 3.43417,-1.754525 7.14609,-6.129928 8.20751,-9.674552 9.05345,-11.124269 7.54904,-12.936982 -2.28022,-2.747488 0.45691,-1.461661 4.50415,2.11593 2.68334,2.371957 3.3252,3.345805 1.94997,2.958533 -2.26442,-0.63767 -5.07224,1.941156 -12.40843,11.396434 l -4.24088,5.465891 2.65543,2.284109 c 2.92644,2.517218 4.69689,2.80779 7.60965,1.248925 C 405.12958,88.395465 406,88.210834 406,88.554524 c 0,0.933898 -4.34858,4.381697 -5.5,4.360712 -0.55,-0.01002 -3.475,-2.072207 -6.5,-4.58263 z M 151.87505,87.561065 C 139.91205,79.431996 144.68489,62 158.87361,62 c 6.66958,0 13.12823,6.98791 13.12484,14.20034 -0.004,7.450596 -6.21771,13.794348 -13.51632,13.798106 -1.65982,8.55e-4 -4.63301,-1.095967 -6.60708,-2.437381 z m 16.36826,-4.685141 c 1.72731,-2.313538 1.79531,-3.014967 0.65977,-6.805086 C 167.25372,70.565761 160.96881,65 156.40179,65 c -4.63045,0 -6.27465,0.853464 -7.97361,4.138888 -2.93242,5.670676 1.69165,13.750342 9.52862,16.649427 3.53949,1.309343 8.09817,0.01866 10.28651,-2.912391 z M 370.10908,72.088577 c -1.06227,-0.672679 -1.23388,-2.268805 -0.72632,-6.755091 0.64788,-5.726469 0.59092,-5.917819 -2.26337,-7.60389 -4.02522,-2.377758 -5.01583,-2.205812 -8.26618,1.434821 -2.15872,2.417925 -2.56371,3.479483 -1.71676,4.5 1.58067,1.904581 -0.45604,1.745437 -4.43611,-0.346631 -2.99595,-1.574781 -3.06103,-1.718474 -1.01894,-2.25 1.19977,-0.312282 6.0477,-3.89297 10.77317,-7.957083 6.86911,-5.907728 8.46584,-7.786093 7.96367,-9.368313 -0.45623,-1.437449 -0.25733,-1.809988 0.72682,-1.361346 0.74522,0.339718 2.16789,0.902099 3.1615,1.249734 0.9936,0.347636 1.57426,1.237409 1.29035,1.977274 -1.09377,2.850321 -2.77616,18.670328 -2.43786,22.923919 0.35536,4.467982 -0.33658,5.274856 -3.04997,3.556606 z m 0.28393,-16.670364 C 370.72686,54.548229 371,52.434954 371,50.722046 v -3.11438 l -3.5124,3.404349 -3.51239,3.404349 2.26239,1.256382 c 2.97496,1.652092 3.43457,1.623939 4.15541,-0.254533 z M 191.72758,67.240409 C 191.45221,66.283184 190.87455,64.6 190.44389,63.5 c -0.75278,-1.92277 -0.70586,-1.932424 1.21529,-0.25 2.22202,1.945921 7.43691,2.304127 10.40656,0.714816 2.2151,-1.185483 2.65379,-6.13987 0.68426,-7.727622 -0.6875,-0.554233 -4.26203,-1.191538 -7.9434,-1.416234 C 187.34127,54.365306 184,52.342694 184,48.279271 c 0,-4.892658 2.55754,-7.230501 10.58294,-9.673846 1.6042,-0.488401 2.35978,-0.02655 3.28744,2.009436 1.48758,3.264877 0.78803,4.186403 -1.46652,1.931859 C 193.63063,39.77349 187,42.244358 187,46.051016 187,49.63504 189.76212,51 197.01472,51 c 5.96758,0 7.07672,0.292467 8.42858,2.222506 3.23977,4.625432 1.52446,9.751959 -4.22674,12.632328 -5.95894,2.984418 -8.90527,3.41464 -9.48898,1.385575 z M 225.50314,54.300797 C 228.3144,47.605206 230.97153,29 229.1165,29 c -2.20135,0 -1.06439,-1.776806 1.44376,-2.25627 1.98266,-0.37901 2.91849,0.102292 4.14816,2.133422 5.9658,9.854142 12.60423,19.305594 13.91224,19.807525 1.25116,0.480113 1.29193,0.755358 0.21319,1.439174 -2.91752,1.849411 -4.8791,0.795745 -7.58414,-4.073836 -2.38979,-4.302062 -3.07695,-4.87892 -5.24971,-4.407055 -5.584,1.21269 -5.79342,1.393648 -6.16886,5.330511 -0.46661,4.892814 -0.0944,6.018684 2.00219,6.056938 1.42431,0.02599 1.44855,0.151779 0.16667,0.865053 -0.825,0.459055 -2.79442,1.14323 -4.37648,1.520388 -2.5043,0.597017 -2.77865,0.452743 -2.12038,-1.115053 z M 235.82008,40.13236 c 1.04015,-0.659521 0.80133,-1.601429 -1.12621,-4.441814 C 231.85298,31.504254 231,31.845115 231,37.166667 c 0,3.947286 1.66059,4.969013 4.82008,2.965693 z m 85.49374,12.976818 c -4.20159,-2.640231 -5.51195,-5.315078 -5.46668,-11.159177 0.0901,-11.63029 7.6955,-16.919009 19.28443,-13.410166 4.68032,1.417089 5.81142,2.139139 5.2964,3.381033 -0.36018,0.868523 -0.88131,2.366632 -1.15805,3.329132 -0.75014,2.608905 -1.94644,2.117403 -2.58209,-1.060858 C 336.06207,31.060366 332.62222,29 328.02438,29 c -4.3938,0 -7.20126,3.396769 -8.42819,10.197321 -1.46863,8.140273 5.1613,14.803672 13.25103,13.317915 2.86427,-0.52605 3.39565,-0.407737 2.46164,0.548085 -2.18758,2.238664 -10.46232,2.265778 -13.99504,0.04586 z M 278.25,34.914058 C 275.76574,33.97599 275.17857,30.221431 277.2,28.2 c 1.89096,-1.89096 5.6157,-1.412894 6.84182,0.878141 2.05934,3.84791 -1.51601,7.450481 -5.79182,5.835917 z M 371.55887,371.5318 c 1.71154,-1.29454 -8.64442,-1.47298 -87.55887,-1.50869 -49.225,-0.0223 -91.975,-0.29766 -95,-0.61197 l -5.5,-0.57148 2.5,2.05794 c 2.48224,2.04331 3.14317,2.05809 93.05887,2.08016 78.10079,0.0192 90.82591,-0.17974 92.5,-1.44596 z M 383,362.91157 l 3.5,-3.01055 -8.36415,0.58241 c -4.60028,0.32032 -52.41278,0.56626 -106.25,0.54653 C 218.04863,361.01023 174,361.26079 174,361.58675 c 0,0.32597 1.0125,1.41529 2.25,2.42072 2.05377,1.66863 4.73121,1.83814 30.70006,1.94369 15.64753,0.0636 28.63137,0.29693 28.85297,0.51853 0.2216,0.2216 32.64407,0.18906 72.04994,-0.0723 L 379.5,365.92213 Z m 8.95887,-7.37435 C 393.08149,354.52126 394,353.30807 394,352.84125 c 0,-0.46683 -48.9375,-0.818 -108.75,-0.78037 -59.8125,0.0376 -111.7875,-0.24782 -115.5,-0.63433 -3.73799,-0.38916 -6.75,-0.31127 -6.75,0.17456 0,0.48252 1.19714,2.00716 2.66032,3.3881 l 2.66032,2.51079 110.79855,-0.0578 c 106.2953,-0.0555 110.88151,-0.13287 112.83968,-1.90499 z m 8.73548,-8.803 c 3.86421,-3.86421 1.6367,-4.05362 -39.09305,-3.32409 -51.06477,0.91465 -154.04019,0.76055 -182.6013,-0.27326 -12.375,-0.44793 -22.85546,-0.50901 -23.28992,-0.13573 -0.43445,0.37328 0.0155,1.65136 1,2.84016 1.73531,2.09552 2.55267,2.1698 26.78992,2.4346 13.75,0.15022 67.89671,0.21181 120.32603,0.13687 84.44293,-0.1207 95.50211,-0.31233 96.86832,-1.67855 z m 7.55565,-8.48979 c 0.9625,-0.85492 1.75,-2.00507 1.75,-2.55587 0,-0.66246 -9.39387,-0.74942 -27.75,-0.2569 -34.01028,0.91255 -123.61914,0.90727 -186.5,-0.011 -26.80941,-0.3915 -46.74347,-0.30691 -46.73469,0.19831 0.0558,3.2094 1.81193,3.48188 26.07381,4.04554 13.42598,0.31191 24.57832,0.71993 24.78296,0.9067 0.20465,0.18678 46.77965,0.0894 103.5,-0.21641 91.33746,-0.49244 103.32799,-0.73372 104.87792,-2.1104 z m -6.75,-6.69474 c 10.30645,-0.46095 12.18376,-0.80502 13.3021,-2.43796 1.25266,-1.82908 0.7873,-1.92883 -12.25779,-2.62752 -7.45793,-0.39944 -20.86888,-0.4384 -29.80209,-0.0866 -23.32565,0.91865 -169.26499,1.04761 -201.45866,0.17801 -14.96905,-0.40433 -27.67655,-0.4508 -28.23889,-0.10325 -0.6538,0.40407 -0.44616,1.51142 0.57589,3.07127 l 1.59834,2.43937 54.64055,0.25848 c 74.26802,0.35134 186.96156,-0.0353 201.64055,-0.69182 z M 283.99562,319.2777 c -8.90161,-8.05126 -16.3034,-13.2383 -20.49562,-14.36297 -2.2,-0.59021 -7.33521,-2.889 -11.41157,-5.10844 -7.85155,-4.2749 -18.95075,-8.52806 -25.58843,-9.80536 -2.2,-0.42335 -14.125,-2.8443 -26.5,-5.37988 -17.83101,-3.65348 -24.57511,-4.61327 -32.5,-4.62522 -5.5,-0.008 -16.075,-0.70992 -23.5,-1.55916 -7.73508,-0.88472 -16.15244,-1.27541 -19.71135,-0.91492 -5.61979,0.56924 -6.10622,0.7975 -5.10752,2.39668 0.93343,1.49466 3.74476,1.95044 18.21135,2.9525 38.07812,2.63754 50.31055,3.99118 64.10752,7.09416 7.7,1.73175 17.75431,3.80764 22.3429,4.61309 10.2068,1.79163 24.60731,7.22769 32.6571,12.32774 3.3,2.09076 8.22161,5.0605 10.9369,6.59942 2.7153,1.53892 6.77982,4.49677 9.03226,6.573 3.02867,2.79173 5.1288,3.85919 8.0631,4.09831 2.18226,0.17784 4.14277,0.22332 4.3567,0.10105 0.21394,-0.12226 -1.98807,-2.37226 -4.89334,-5 z m -66.08871,4.29588 c -0.72919,-0.72919 -15.16184,-5.3992 -20.11518,-6.50872 C 183.36849,313.83414 133,310.33657 133,312.56574 c 0,0.31116 0.46004,1.42533 1.02231,2.47594 0.92878,1.73545 2.23241,1.90692 14.25,1.87439 18.09346,-0.049 37.167,1.68397 49.72769,4.51805 9.19317,2.07427 21.12396,3.35651 19.90691,2.13946 z M 241,323.52568 c 0,-2.21115 -33.60132,-13.05526 -48.22957,-15.56507 -6.06415,-1.04044 -17.15578,-2.36415 -24.64807,-2.94157 -7.4923,-0.57742 -16.32236,-1.44186 -19.62236,-1.92097 -3.3,-0.47911 -9.22648,-0.63929 -13.16995,-0.35595 -7.08064,0.50874 -7.15672,0.5442 -6.10768,2.84659 1.30798,2.87069 6.56617,3.84735 17.02425,3.16209 7.68457,-0.50352 45.97082,3.21876 53.75338,5.22603 2.475,0.63835 10.125,3.10372 17,5.4786 8.59344,2.96849 14.29702,4.35337 18.25,4.43127 3.1625,0.0623 5.75,-0.10014 5.75,-0.36102 z m 17.68231,-1.1767 C 258.24886,321.91552 244.97198,314.96941 237,311.00536 c -6.47144,-3.2179 -15.42317,-5.80144 -27.5,-7.93669 -6.6,-1.16692 -14.925,-2.77618 -18.5,-3.57614 C 184.84975,298.11633 137.99452,294 128.47974,294 c -4.36974,0 -4.41963,0.0378 -3.29779,2.5 1.33035,2.91979 0.34329,2.7165 14.31805,2.94887 23.09643,0.38404 59.24645,4.95542 71,8.97836 3.85,1.31776 11.5,3.77451 17,5.45946 5.5,1.68495 12.17071,4.53724 14.82381,6.33842 4.35506,2.95666 5.40687,3.2416 10.82411,2.93233 3.30016,-0.1884 5.79064,-0.55221 5.53439,-0.80846 z M 301,323.37379 c 0,-0.34441 -3.42578,-4.13617 -7.61285,-8.42614 -6.85152,-7.01991 -8.95534,-8.45939 -21.03704,-14.39398 C 247.20235,288.20096 240.73042,286.00829 212,280.10726 c -20.72921,-4.25764 -33.20567,-5.96161 -52,-7.10186 -9.075,-0.55058 -22.125,-1.44183 -29,-1.98054 -6.875,-0.53871 -13.02037,-0.98969 -13.65638,-1.00217 -0.65625,-0.0129 -0.93648,0.81823 -0.64793,1.92164 0.46065,1.76153 1.65062,1.98265 12.65638,2.35177 35.29842,1.18387 50.61823,2.75055 76.14793,7.78728 26.83972,5.29519 35.99892,8.01901 47,13.97719 3.85,2.08516 9.57614,4.75263 12.72477,5.92772 6.22506,2.32324 13.8925,7.72633 23.27523,16.4016 4.67554,4.323 6.71742,5.55449 9.25,5.57885 1.7875,0.0172 3.25,-0.25053 3.25,-0.59495 z m 54.4186,-0.45948 c 0.92922,-0.92854 -12.03787,-3.75156 -22.68603,-4.9389 -8.92646,-0.99536 -28.04385,0.003 -29.58564,1.54432 -0.2574,0.25741 0.24874,1.25827 1.12476,2.22414 1.43633,1.58365 3.99741,1.75613 26.07677,1.75613 13.46621,0 24.74777,-0.26356 25.07014,-0.58569 z M 180.5,321.97425 c -3.3,-0.40243 -14.2125,-1.08069 -24.25,-1.50723 -17.17947,-0.73004 -19.8918,-0.44215 -17.58333,1.86631 0.36666,0.36667 11.27916,0.60051 24.25,0.51965 15.44144,-0.0963 21.51189,-0.39964 17.58333,-0.87873 z m 91.53743,-1.08994 c -1.35441,-1.12703 -4.50441,-3.20822 -7,-4.62486 -2.49558,-1.41664 -6.86564,-4.08085 -9.71122,-5.92045 -9.24261,-5.97513 -21.95817,-10.80648 -32.81334,-12.4676 -3.85708,-0.59023 -12.44712,-2.36491 -19.08897,-3.94372 -6.64186,-1.57882 -16.31686,-3.33776 -21.5,-3.90876 -17.3145,-1.90744 -45.33779,-4.02894 -53.15246,-4.0239 l -7.72856,0.005 1.08312,2.37719 c 1.04775,2.29957 1.54503,2.3947 15.22856,2.91309 25.94502,0.98292 44.01086,2.73035 58.64544,5.6725 7.975,1.60331 16.69332,3.20352 19.37405,3.55604 2.68073,0.35251 8.30573,1.78718 12.5,3.18815 7.87857,2.6316 33.50226,15.30675 36.09024,17.85259 0.85383,0.83993 3.3552,1.42657 6,1.40717 L 274.5,322.93346 Z M 379,322.5144 c 0,-1.42987 -13.91826,-7.16144 -23.96527,-9.86896 -11.15676,-3.00657 -12.14094,-3.10145 -30.03473,-2.89524 -10.175,0.11726 -20.91889,0.71504 -23.87531,1.32841 l -5.37531,1.11521 2.00713,2.00713 c 1.91259,1.9126 2.43825,1.94822 11.16074,0.75623 16.78226,-2.2934 39.63231,0.35581 52.50834,6.08776 C 365.11274,322.68633 379,323.84749 379,322.5144 Z m 16.77032,-0.70344 c -1.24937,-3.74811 -27.09376,-16.05534 -39.27032,-18.70071 -8.0614,-1.75135 -30.11646,-2.40346 -41.25873,-1.21991 -13.36784,1.41996 -24.46652,3.94676 -23.94628,5.45178 0.47897,1.38562 2.60901,1.34976 13.39809,-0.22559 4.5062,-0.65796 14.6312,-1.22086 22.5,-1.25088 12.71315,-0.0485 15.6994,0.28827 26.80692,3.02322 12.73292,3.13517 25.13786,8.396 28.46402,12.07138 1.4625,1.61604 3.07743,2.03975 7.7743,2.03975 4.13612,0 5.80853,-0.35946 5.532,-1.18904 z m 14.67968,0.32563 c -0.5225,-0.47488 -5.19003,-4.1404 -10.3723,-8.14561 C 375.49675,294.99314 344.38929,287.70927 314,293.83573 c -5.775,1.16424 -15.20439,2.80437 -20.9542,3.64473 -5.7498,0.84036 -10.86401,1.93775 -11.3649,2.43864 -0.54761,0.54761 0.23635,1.50387 1.96629,2.39846 2.61426,1.35188 3.83478,1.27518 13.3649,-0.83994 35.10216,-7.79057 66.39001,-4.31259 89.94913,9.99882 3.19022,1.93796 6.28283,3.52356 6.87247,3.52356 0.58963,0 2.51858,1.8 4.28655,4 2.98222,3.71097 3.57813,4 8.24712,4 2.89119,0 4.6284,-0.36739 4.08264,-0.86341 z m 10.36258,-1.62459 c 1.09138,-2.39532 0.70468,-2.7958 -10.37988,-10.75 C 394.65355,298.43899 389.61241,295.79154 374,290.62867 c -19.5014,-6.44891 -23.32605,-7.09447 -42,-7.08909 -13.10519,0.004 -18.66033,0.4556 -27,2.19602 -5.775,1.2052 -15.675,2.84742 -22,3.64939 -6.325,0.80196 -12.85,1.98252 -14.5,2.62346 l -3,1.16535 4.82283,2.46928 c 4.66986,2.39096 4.97116,2.4201 9.5,0.91875 2.57244,-0.85279 9.62717,-2.2309 15.67717,-3.06247 6.05,-0.83157 13.925,-2.19503 17.5,-3.0299 10.75263,-2.51108 29.0421,-2.98741 39.41975,-1.02666 23.48753,4.43774 40.4066,12.93904 60.58025,30.43967 4.2849,3.71715 6.33066,3.88199 7.81258,0.62953 z M 426,310.39901 c 0,-3.87692 -21.89145,-19.26093 -31.48763,-22.12765 -2.74319,-0.81949 -9.03609,-3.52324 -13.98421,-6.00833 -13.33604,-6.69777 -23.43743,-8.56924 -46.52816,-8.62024 -16.85531,-0.0372 -20.05579,0.25369 -36,3.27222 -17.13815,3.24457 -40.68434,9.36933 -42.32427,11.00926 -0.45499,0.45499 0.59796,1.32409 2.3399,1.93133 2.56904,0.89558 4.23863,0.74313 8.84088,-0.80726 3.12054,-1.05124 9.71692,-2.42437 14.65861,-3.05141 4.94168,-0.62704 15.50988,-2.2883 23.48488,-3.69169 23.5984,-4.15269 43.27282,-3.44602 62,2.22695 18.06488,5.47233 29.27909,10.38137 36.87906,16.14385 2.54152,1.92704 7.99594,5.91055 12.12094,8.85226 6.7026,4.77989 7.6329,5.17529 8.75,3.71899 0.6875,-0.89625 1.25,-2.17798 1.25,-2.84828 z m 5.19851,-9.15479 c 0.16582,-0.58559 -2.84851,-3.11983 -6.69851,-5.63163 -3.85,-2.51181 -7.9,-5.29471 -9,-6.18422 -6.20688,-5.01919 -16.17487,-10.77705 -22.21188,-12.83037 -3.79783,-1.29173 -8.30181,-3.07084 -10.00886,-3.95359 -1.70704,-0.88274 -7.25301,-2.07503 -12.32437,-2.64952 -5.07137,-0.57449 -11.07337,-1.4985 -13.33778,-2.05334 -2.26441,-0.55484 -10.41711,-1.28042 -18.11711,-1.6124 -16.01623,-0.69051 -40.15736,1.55371 -51.93798,4.8283 -3.88411,1.07965 -10.88702,3.01342 -15.56202,4.29728 -9.28034,2.5486 -21.8928,6.82627 -24.60954,8.34663 -1.56469,0.87565 -1.5336,1.01843 0.35203,1.61691 1.26896,0.40275 6.64582,-0.86715 13.91289,-3.28593 11.94983,-3.9774 28.62595,-7.63623 48.84462,-10.71676 8.59214,-1.30911 14.83068,-1.54866 28.5,-1.09436 21.27007,0.7069 29.55305,2.34989 42,8.33098 5.225,2.51076 12.2,5.45753 15.5,6.54839 3.3,1.09086 7.43248,3.06699 9.18328,4.3914 1.7508,1.3244 3.55681,2.40801 4.01335,2.40801 1.26401,0 10.31186,6.39814 14.71913,10.40855 3.68024,3.34886 3.9929,3.45302 5.19851,1.73177 0.70551,-1.00726 1.41842,-2.31051 1.58424,-2.8961 z m 2.61175,-8.00166 c 0.40345,-2.73177 -8.69609,-9.90348 -22.19595,-17.49352 -5.41704,-3.04562 -27.2702,-11.66086 -34.83816,-13.73436 -19.38623,-5.3115 -43.69131,-6.41109 -66.78005,-3.0212 -16.78959,2.46505 -38.6484,7.78527 -50.4961,12.29026 -4.95,1.88219 -12.71558,4.65132 -17.25685,6.15362 -4.94325,1.63528 -7.99919,3.14836 -7.6148,3.77032 1.00942,1.63328 9.05206,0.20146 17.61612,-3.13616 4.25946,-1.66002 11.23446,-3.92558 15.5,-5.03459 4.26554,-1.10901 11.35553,-3.09099 15.75553,-4.40439 16.96602,-5.06439 55.85558,-7.66008 71,-4.73892 3.3,0.63652 10.80328,1.79425 16.67396,2.57273 6.02964,0.79956 12.35179,2.27138 14.5301,3.38267 2.12087,1.08199 6.36092,2.69542 9.42233,3.58539 5.28766,1.53717 9.96546,4.34504 28.37361,17.03141 4.4,3.03235 8.45,5.3703 9,5.19545 0.55,-0.17486 1.13962,-1.26328 1.31026,-2.41871 z m 3.89536,-8.27361 c 0.99855,-2.64546 0.87696,-3.27992 -0.95578,-4.98738 -3.39351,-3.16154 -13.83579,-9.05133 -17.17092,-9.68496 -1.6934,-0.32173 -4.87892,-1.62056 -7.07892,-2.8863 -4.29447,-2.47076 -22.57666,-10.31745 -31.36765,-13.46295 -2.95221,-1.05633 -10.15221,-2.85938 -16,-4.00678 -9.48614,-1.86128 -12.68063,-2.01252 -29.63235,-1.40293 -10.45,0.37578 -22.6,1.30524 -27,2.06547 -4.4,0.76023 -12.5,2.10167 -18,2.981 -5.5,0.87932 -13.15,2.73945 -17,4.13362 -3.85,1.39418 -11.83084,4.04319 -17.73521,5.8867 -5.90436,1.84351 -13.32936,4.64568 -16.5,6.22705 -3.17063,1.58137 -8.57729,3.95142 -12.01479,5.26677 -3.4375,1.31536 -6.25,2.73135 -6.25,3.14665 0,0.62308 4.18114,1.24695 6,0.89525 1.05154,-0.20332 25.81658,-9.05661 32.25678,-11.53151 8.18205,-3.14429 30.87545,-8.93822 43.33533,-11.06411 16.21407,-2.76642 34.07903,-3.74215 47.37613,-2.58755 20.01885,1.73825 29.86891,4.39727 55.03176,14.85576 8.6492,3.59489 23.08736,12.39581 28.29507,17.24753 2.74294,2.55543 3.06404,2.47598 4.41055,-1.09133 z M 218.5,275.03904 c 9.13746,-4.49225 21.9889,-9.6397 38,-15.22035 20.8357,-7.26226 25.22271,-8.52982 32.38364,-9.35671 3.089,-0.3567 8.09136,-1.24878 11.11636,-1.98241 21.71143,-5.26551 60.98603,-4.67386 79.5,1.19763 7.06676,2.24114 28.16803,11.0322 33.35997,13.8982 2.39799,1.3237 6.06938,2.86703 8.15865,3.42961 2.08927,0.56258 7.10228,3.01915 11.14002,5.45903 6.39103,3.8619 7.42935,4.21607 8.02107,2.73605 0.37385,-0.93505 0.71135,-2.06848 0.75,-2.51873 0.0387,-0.45026 -5.66721,-3.53478 -12.67971,-6.85451 -7.0125,-3.31972 -17.32918,-8.23808 -22.92594,-10.92968 -18.71244,-8.99921 -46.42154,-14.58694 -66.77376,-13.46537 -6.62766,0.36523 -13.4003,0.64785 -15.0503,0.62804 -12.94408,-0.15538 -66.65744,12.10855 -83.5,19.06487 -12.62129,5.21286 -30.22481,14.31715 -29.35826,15.18369 1.1818,1.18181 3.69976,0.77508 7.85826,-1.26936 z m -12.52896,-1.99998 c 0.80907,-0.51167 1.16755,-1.2338 0.79663,-1.60473 -0.89913,-0.89913 -7.5383,0.38553 -8.29161,1.6044 -0.76364,1.23561 5.54129,1.23588 7.49498,3.3e-4 z m -7.45637,-11.84363 c 2.87397,-1.50856 3.0658,-3.29876 0.98533,-9.19543 -0.825,-2.3383 -1.50125,-5.43238 -1.50279,-6.87573 l -0.003,-2.62427 -9.24721,-0.12995 c -17.23626,-0.24222 -38.83341,-1.30529 -39.89913,-1.96394 -0.58333,-0.36052 -3.07003,-0.61516 -5.52599,-0.56586 -7.76812,0.15592 -4.46089,-2.23534 4.75956,-3.44136 10.44297,-1.36592 25.65122,-4.27235 28.7154,-5.48776 1.26338,-0.50112 3.56868,-0.91113 5.12288,-0.91113 1.55421,0 4.92023,-0.92645 7.48006,-2.05878 2.62084,-1.15933 5.51616,-1.78522 6.62712,-1.43262 1.08509,0.3444 1.97903,0.25835 1.98654,-0.19121 0.008,-0.44957 0.26979,-1.77175 0.58285,-2.93819 0.8969,-3.34184 -3.31652,-3.75638 -12.85092,-1.26437 -4.53507,1.18534 -10.55803,2.29246 -13.38437,2.46028 -2.82633,0.16781 -6.87633,1.03215 -9,1.92074 -2.12366,0.8886 -9.4135,2.95113 -16.19964,4.58342 -6.78613,1.63228 -13.92859,3.6322 -15.87212,4.44426 -1.94353,0.81206 -4.15374,1.47647 -4.91157,1.47647 -0.75784,0 -2.28809,0.91021 -3.40056,2.02268 -1.88783,1.88783 -1.9045,2.06055 -0.25,2.59068 0.97497,0.3124 2.67268,0.94113 3.77268,1.39717 2.32764,0.96502 17.31119,3.56619 26,4.51365 3.3,0.35984 7.575,1.04288 9.5,1.51787 9.76049,2.40835 26.08144,4.29985 31.72258,3.67644 3.48458,-0.38508 4.32604,-0.14066 4.81455,1.39849 C 199.31548,256.56934 198.3467,258 195.90774,258 192.07731,258 176,267.64972 176,269.94877 c 0,0.51493 1.9125,1.07461 4.25,1.24373 3.74044,0.27063 4.94117,-0.23204 10.01467,-4.1925 3.17056,-2.475 6.88306,-5.08705 8.25,-5.80457 z m 23.30509,4.28117 c 0.17587,-0.15553 -0.64302,-2.17 -1.81976,-4.4766 -2.78916,-5.4672 -2.00926,-6.12349 1.31228,-1.1043 l 2.60496,3.93635 12.29138,-4.95713 c 6.86747,-2.76966 20.23437,-6.93307 30.29138,-9.4349 9.9,-2.46278 22.275,-5.55062 27.5,-6.86188 5.225,-1.31125 10.175,-2.39713 11,-2.41306 6.17872,-0.1193 20.67576,-1.41937 26.25,-2.35405 6.63191,-1.11203 6.75004,-1.18589 6.75203,-4.22143 0.001,-1.69928 -0.71962,-7.1396 -1.60165,-12.0896 -1.71899,-9.64707 -6.19663,-19.90559 -12.919,-29.59813 -5.40724,-7.79636 -6.16821,-8.53574 -12.37159,-12.02072 C 308.02441,178.14782 305.275,176.43177 305,176.0677 303.89216,174.60105 293.13739,170 290.817,170 c -1.36602,0 -2.79669,-0.31302 -3.17928,-0.69561 -0.38258,-0.38259 -1.24508,-0.79246 -1.91666,-0.91082 -9.44929,-1.66542 -13.39153,-2.05758 -14.22106,-1.41466 -0.55,0.42628 -3.93223,1.27525 -7.51607,1.88661 -6.08942,1.03877 -12.2925,3.48583 -15.42375,6.08454 -0.74158,0.61545 -3.98349,2.40589 -7.20425,3.97876 -12.13485,5.92608 -19.40837,15.43212 -24.70974,32.29405 -3.0566,9.72208 -3.48551,12.27686 -3.11041,18.52713 0.26343,4.38959 0.0463,7.25 -0.55034,7.25 -2.61676,0 0.0691,-31.17959 2.83297,-32.88777 0.55003,-0.33994 1.75087,-2.49453 2.66853,-4.78798 0.91765,-2.29345 2.29428,-4.41005 3.05916,-4.70357 0.76489,-0.29351 2.03916,-2.01574 2.83173,-3.82717 2.4718,-5.64936 13.61974,-15.07911 22.49809,-19.03055 8.5724,-3.81527 16.68825,-6.4245 19.16389,-6.16116 1.3531,0.14393 4.82326,-0.22933 7.71145,-0.82946 5.15485,-1.07113 13.13246,-0.0983 18.74874,2.28621 1.1,0.46704 3.95934,1.40519 6.35409,2.08478 2.39475,0.67959 4.58537,1.8383 4.86803,2.57492 0.28267,0.73662 2.58386,2.28226 5.11376,3.43476 4.46975,2.03621 8.12641,4.93687 14.57584,11.56236 7.44204,7.64519 16.49872,30.83166 16.87262,43.19643 0.14243,4.71037 0.61522,7.0882 1.40935,7.0882 0.65725,0 2.90755,-1.57488 5.00066,-3.49974 l 3.80565,-3.49974 -3.25,-3.05095 c -1.7875,-1.67802 -3.25,-3.23747 -3.25,-3.46546 0,-0.22798 1.40989,-2.02029 3.13308,-3.9829 1.7232,-1.96261 2.9607,-3.68397 2.75,-3.82525 C 345.77629,212.92228 342,209.68046 342,208.90862 c 0,-0.54428 0.98511,-2.32204 2.18914,-3.95057 2.1563,-2.91656 2.16005,-2.98296 0.25,-4.4277 -1.06653,-0.80671 -2.96576,-1.48105 -4.22052,-1.49855 -2.98806,-0.0417 -3.79605,-2.36932 -1.80781,-5.20793 2.95297,-4.21595 2.14065,-5.64035 -2.89306,-5.07298 -3.59295,0.40498 -4.61131,0.16887 -5.13278,-1.19006 -0.35779,-0.93239 -0.14078,-2.20502 0.48225,-2.82805 C 331.49025,184.10975 332,182.29582 332,180.70181 v -2.89818 l -5.89752,0.68448 -5.89753,0.68448 -0.71554,-4.3363 c -1.007,-6.10259 -2.03178,-7.1243 -5.39913,-5.38298 -3.53965,1.83043 -4.69306,0.95779 -5.55571,-4.20331 -0.3907,-2.3375 -0.9205,-4.25 -1.17733,-4.25 -0.25683,0 -2.52892,0.93933 -5.04908,2.08739 -5.29211,2.41084 -5.85687,2.01109 -6.89945,-4.88359 -0.65645,-4.34116 -0.20226,-5.6909 1.92462,-5.71948 0.71517,-0.01 1.06225,-1.3641 0.89684,-3.5 -0.37842,-4.88669 -3.17519,-23.58693 -4.33483,-28.98432 -0.53176,-2.475 -1.87414,-9 -2.98306,-14.5 C 289.80335,100 288.46944,94.718606 287.94802,93.763569 287.42661,92.808532 287,91.373818 287,90.575317 c 0,-0.798502 -1.17014,-5.079608 -2.60032,-9.513569 -2.54195,-7.880811 -4.45012,-9.93106 -5.87434,-6.311748 -3.45693,8.784935 -11.59735,57.79891 -11.54282,69.5 0.0172,3.68559 0.0841,3.75 3.89504,3.75 2.13265,0 4.34998,-0.56924 4.92738,-1.26497 0.9294,-1.11986 1.57117,-9.88614 4.08028,-55.73503 l 0.62935,-11.5 0.78982,10 c 0.4344,5.5 1.66862,15.32268 2.74272,21.82817 1.07409,6.50549 2.00613,16.85549 2.0712,23 0.15108,14.26513 0.73615,17.07805 3.63812,17.49138 2.23742,0.31868 3.36638,4.18045 1.22213,4.18045 -0.56179,0 -1.53402,1.125 -2.16051,2.5 -1.7753,3.89635 -3.71523,2.98136 -6.36047,-3 -1.3378,-3.025 -2.79101,-5.5 -3.22936,-5.5 -1.48043,0 -4.22822,5.78662 -4.22822,8.90429 0,4.64217 -2.19928,3.78775 -4.90168,-1.90429 -1.30562,-2.75 -2.91562,-5 -3.57779,-5 -1.27746,0 -3.52053,6.28605 -3.52053,9.86602 0,2.97684 -1.80207,2.66369 -3.27144,-0.56848 C 258.58236,158.77625 254.47601,154 253.45455,154 c -0.25,0 -0.45455,3.15 -0.45455,7 0,3.85 -0.37872,7 -0.84159,7 -0.46288,0 -1.80839,-1.0125 -2.99003,-2.25 C 243.5515,159.8676 242,157.76642 242,156.04199 c 0,-1.0269 -2.15088,-4.49395 -4.77974,-7.70454 C 234.5914,145.12685 231.25415,140.25 229.80414,137.5 227.16985,132.50397 224,119.72851 224,114.10753 224,109.04644 221.10581,97.058671 218.64001,91.906365 216.96254,88.401289 216.66489,87 217.59782,87 c 2.02329,0 8.39453,7.05782 8.96438,9.930406 0.28036,1.413277 1.13373,4.594594 1.89639,7.069594 0.76265,2.475 1.93308,6.975 2.60095,10 2.05224,9.29525 5.2507,14.36447 12.92876,20.49067 7.40627,5.90934 12.0117,10.44148 12.0117,11.82054 0,1.73364 2.81808,3.54912 4.73216,3.04858 1.59898,-0.41814 1.94438,-1.24801 1.74415,-4.19059 -0.13732,-2.01806 -0.56476,-4.43311 -0.94986,-5.36677 C 260.87857,138.23169 254.79367,133 253.61463,133 c -0.28534,0 -3.35287,-1.98741 -6.81672,-4.41647 -6.78576,-4.75857 -8.97016,-8.00087 -11.17268,-16.58353 -0.77629,-3.025 -2.53977,-7.525 -3.91884,-10 -1.37907,-2.475 -3.44262,-6.30983 -4.58565,-8.521845 -1.14304,-2.212014 -3.45746,-4.836562 -5.14316,-5.832327 -4.11184,-2.428925 -8.81599,-3.716309 -9.50512,-2.601267 -0.30498,0.493467 0.58895,4.646036 1.98652,9.22793 C 216.51125,101.00085 217,104.68674 217,113.43558 c 0,13.27074 1.10978,17.37288 6.77388,25.03863 2.42783,3.28582 5.26548,7.64279 6.30589,9.68215 1.04041,2.03937 2.34808,3.99003 2.90594,4.33481 0.55786,0.34477 1.02118,1.61281 1.0296,2.81785 0.023,3.28624 1.34476,4.75959 4.57537,5.1 2.82569,0.29775 2.91788,0.48313 3.20704,6.44877 0.25629,5.28753 0.0552,6.14221 -1.44528,6.14221 -0.95865,0 -3.04371,-1.2375 -4.63346,-2.75 l -2.89045,-2.75 0.33573,4.5 0.33574,4.5 -5.25,-0.21786 c -2.8875,-0.11983 -5.25,-0.0639 -5.25,0.12427 0,0.18818 0.66181,2.2179 1.47068,4.5105 1.29807,3.67911 1.29632,4.23527 -0.0149,4.73845 -0.8171,0.31355 -2.42231,0.32514 -3.56714,0.0258 -2.54902,-0.66658 -4.89073,0.13719 -4.88244,1.67587 0.003,0.62865 0.676,2.42735 1.49469,3.99709 1.97893,3.79435 1.23478,4.64592 -4.05987,4.64592 -2.44254,0 -4.44098,0.26652 -4.44098,0.59227 0,0.32575 0.9,1.73644 2,3.13486 1.1,1.39842 2,3.60863 2,4.91157 0,1.9627 -0.77174,2.57538 -4.5,3.57254 -2.475,0.66196 -4.5,1.4818 -4.5,1.82185 0,0.34006 1.125,1.67516 2.5,2.96691 3.40832,3.20195 3.1405,4.65726 -1,5.43402 -4.32706,0.81176 -4.49796,2.76828 -0.5,5.7241 3.58927,2.65366 3.73457,3.58773 0.75,4.82146 -1.2375,0.51154 -3.34037,1.79857 -4.67305,2.86008 l -2.42305,1.93001 3.20242,1.65603 c 1.76133,0.91082 3.6392,1.38609 4.17305,1.05615 0.53385,-0.32994 0.97063,0.25444 0.97063,1.29862 0,1.05465 -1.11121,2.4048 -2.5,3.03758 -3.65895,1.66713 -3.05724,3.69842 1.5,5.0638 2.2,0.65914 4,1.56285 4,2.00825 0,0.4454 -1.36563,2.69502 -3.03473,4.99915 -1.66911,2.30413 -2.76755,4.62165 -2.44099,5.15004 C 204.85085,258.56768 206.86492,259 209,259 c 2.13508,0 4.13047,0.40208 4.43419,0.89352 0.30373,0.49144 -0.11972,2.79801 -0.94098,5.12573 -0.82127,2.32771 -1.49321,4.63321 -1.49321,5.12332 0,0.68913 9.299,-3.32102 10.81976,-4.66597 z m -6.64414,-16.40267 c -0.64659,-1.85481 -1.13113,-4.31773 -1.07675,-5.47315 0.0564,-1.19737 0.70345,-0.17176 1.50476,2.38494 1.65878,5.29258 1.28374,7.99855 -0.42801,3.08821 z m -48.80983,18.31911 c 2.82381,-0.88382 6.70921,-2.07858 8.63421,-2.65503 3.73823,-1.11941 9,-4.58403 9,-5.92607 0,-1.10491 -7.74331,-1.0363 -8.42994,0.0747 -0.30138,0.48765 -2.24044,1.19442 -4.30901,1.57059 -11.82846,2.15104 -29.27804,6.91643 -28.08823,7.67074 2.30566,1.46174 17.73691,0.97276 23.19297,-0.73493 z M 442.54201,264.25 c 0.34794,-2.0625 0.80895,-4.425 1.02445,-5.25 0.30977,-1.18585 -0.76054,-1.53354 -5.11052,-1.66016 -3.02629,-0.0881 -10.02239,-1.12793 -15.54689,-2.31075 -5.52451,-1.18282 -10.57657,-1.94416 -11.2268,-1.69186 -0.65024,0.2523 1.74275,1.73833 5.31775,3.3023 3.575,1.56396 10.325,4.72769 15,7.0305 4.675,2.30281 8.81711,4.21912 9.20469,4.25845 0.38757,0.0393 0.98937,-1.61598 1.33732,-3.67848 z m -304.37534,1.47121 c 1.46666,-0.12166 3.00416,-0.55871 3.41666,-0.97121 0.4125,-0.4125 1.77345,-0.75 3.02432,-0.75 1.25087,0 2.55243,-0.45 2.89235,-1 0.33992,-0.55 1.93237,-1 3.53878,-1 1.60641,0 4.61735,-0.63665 6.69098,-1.41477 5.18274,-1.94481 9.44634,-2.94382 11.47564,-2.68888 0.93798,0.11784 2.96298,-0.50697 4.5,-1.38847 2.64362,-1.51614 2.1193,-1.57394 -9.7054,-1.06985 -6.875,0.29308 -13.7375,0.81688 -15.25,1.164 -2.12619,0.48796 -2.75,0.26442 -2.75,-0.98545 0,-1.21138 0.97383,-1.61658 3.88519,-1.61658 2.13685,0 5.39935,-0.65739 7.25,-1.46086 l 3.36481,-1.46086 -4,-0.22162 c -5.78772,-0.32067 -14.43535,0.0746 -27.22472,1.24436 -7.07143,0.64678 -11.84825,0.67771 -12.9099,0.0836 -2.95134,-1.65165 1.87819,-3.27299 9.1532,-3.07284 6.18029,0.17002 8.54156,-0.38495 7.22776,-1.69876 -0.32285,-0.32285 -4.06705,-1.01904 -8.32043,-1.5471 -4.25339,-0.52806 -8.58152,-1.41399 -9.61807,-1.96874 -1.78705,-0.9564 -1.85083,-0.65625 -1.23184,5.79711 0.94361,9.83776 1.02603,10.46276 1.86864,14.17043 l 0.76466,3.3647 9.64535,-0.64349 c 5.30494,-0.35391 10.84535,-0.74303 12.31202,-0.8647 z M 116,260.08271 c 0,-1.72441 8.49198,-4.05956 16.33797,-4.49266 4.31088,-0.23796 8.09838,-0.69307 8.41667,-1.01135 1.27757,-1.27758 3.24536,-0.46405 3.24536,1.34171 0,1.64358 -0.97299,2.00887 -6.75,2.53416 -3.7125,0.33757 -8.37721,1.04839 -10.36602,1.57959 C 122.30477,261.25727 116,261.28539 116,260.08271 Z M 444.84747,247.2839 c 0.16588,-3.69386 0.56689,-7.14533 0.89112,-7.66994 0.35529,-0.57488 -0.17095,-0.64232 -1.32455,-0.16974 -1.05272,0.43125 -4.95154,1.28232 -8.66404,1.89126 -9.40899,1.54332 -9.07428,3.9759 0.67288,4.89031 1.60759,0.15082 3.10759,0.83671 3.33333,1.52421 0.67665,2.06066 -7.95385,1.32077 -19.25621,-1.65083 -2.84246,-0.74734 -5.73631,-0.72866 -10,0.0645 -8.20163,1.52578 -10.16979,2.76214 -4.5,2.82682 5.65632,0.0645 26.33831,2.65503 31,3.88289 7.37621,1.94283 7.51359,1.84498 7.84747,-5.58951 z M 400,244.0265 c 4.675,-0.5264 10.75,-1.18632 13.5,-1.4665 4.96407,-0.50575 13.01636,-1.81324 19.25,-3.12572 1.7875,-0.37635 3.25,-1.01537 3.25,-1.42004 0,-0.40467 -3.2625,-1.73095 -7.25,-2.94728 -3.9875,-1.21634 -8.93648,-2.84995 -10.99774,-3.63024 -2.06126,-0.78029 -6.33626,-1.70937 -9.5,-2.06461 -3.16374,-0.35525 -6.53123,-1.04556 -7.48331,-1.53404 -0.95207,-0.48848 -4.77707,-1.33185 -8.5,-1.87416 -7.59707,-1.10663 -12.55214,-1.94265 -26.15631,-4.41308 -8.05821,-1.46332 -9.58611,-1.50593 -10.7911,-0.30095 -1.01394,1.01394 -1.14712,2.07662 -0.4796,3.82693 0.87914,2.30524 1.79383,2.53758 18.79109,4.77319 9.82683,1.29251 21.46697,3.00346 25.86697,3.80213 4.4,0.79867 9.69032,1.7012 11.75627,2.00563 2.06595,0.30443 3.97515,0.90767 4.24267,1.34053 0.59555,0.96361 -16.81507,2.29915 -28.74894,2.20528 -4.8125,-0.0379 -8.75,0.26421 -8.75,0.67125 0,0.57061 10.3949,4.58864 13,5.02502 0.275,0.0461 4.325,-0.34694 9,-0.87334 z m -281.64335,-5.69786 c 1.17884,-0.6872 3.15585,-1.7895 4.39335,-2.44956 4.74302,-2.52984 2.452,-3.41677 -5.87694,-2.27516 l -4.40609,0.60392 0.37467,3.92877 c 0.32034,3.35915 0.59193,3.74845 1.87316,2.68512 0.82418,-0.68401 2.46301,-1.8059 3.64185,-2.49309 z M 445.5,233.63003 v -3.36998 l -9.41801,-0.66202 c -5.85332,-0.41144 -9.7962,-0.28382 -10.41721,0.33719 -1.05793,1.05793 -0.24862,1.50267 4.33522,2.38235 1.375,0.26387 3.85,0.93949 5.5,1.50137 4.03572,1.3743 8.88551,2.94394 9.5,3.07468 0.275,0.0585 0.5,-1.41011 0.5,-3.26359 z M 136,230.52349 c 5.3644,-1.23621 1.45862,-2.13232 -10.42401,-2.39161 -5.5418,-0.12092 -10.80323,-0.43626 -11.69208,-0.70075 -1.23027,-0.3661 -1.51228,0.0622 -1.18129,1.79399 0.41803,2.18719 0.80798,2.2716 10.11608,2.18991 5.32472,-0.0467 11.2563,-0.44793 13.1813,-0.89154 z m 309.31087,-8.85748 c -0.13887,-3.48369 -0.60313,-7.24525 -1.03168,-8.35903 -0.77546,-2.01533 -0.81514,-2.0161 -8.27919,-0.16071 -11.13856,2.7688 -43.75068,6.43777 -49.82676,5.60567 l -2.67324,-0.36609 3,-1.28191 c 1.65,-0.70505 9.3,-1.89715 17,-2.64911 16.64253,-1.62526 27.09446,-3.07212 33.07964,-4.5792 2.4109,-0.60707 5.03288,-0.85456 5.82662,-0.54997 1.10283,0.42319 1.40196,-0.25633 1.26845,-2.88145 -0.0961,-1.88938 -0.4538,-3.43726 -0.7949,-3.43973 -0.34111,-0.002 -5.48703,1.09552 -11.43538,2.43997 -5.94835,1.34444 -11.11558,2.25879 -11.48273,2.03188 -0.36715,-0.22691 -3.32123,0.01 -6.56463,0.52655 -3.24339,0.51652 -9.05789,1.12865 -12.9211,1.36029 -3.86322,0.23164 -8.75568,1.14469 -10.87213,2.029 -2.11645,0.8843 -5.34598,1.60783 -7.17674,1.60783 -2.8859,0 -7.20914,0.68466 -16.1418,2.55634 -1.55596,0.32602 -2.02914,0.94762 -1.59085,2.0898 0.53033,1.38201 1.78497,1.53621 8.36845,1.02853 7.00142,-0.53991 7.87377,-0.40526 9.09084,1.40323 1.24725,1.85333 2.83557,2.04595 21.59626,2.61904 11.1375,0.34022 20.25,0.99759 20.25,1.46082 0,0.46323 -0.5625,0.90433 -1.25,0.98021 -0.6875,0.0759 3.925,0.67949 10.25,1.34135 6.325,0.66186 11.73926,1.27477 12.03168,1.36203 0.29242,0.0873 0.41806,-2.69164 0.27919,-6.17534 z m -19.71652,2.48665 c -0.81492,-1.31857 16.53381,-5.4245 17.75599,-4.20232 1.49111,1.49111 0.77487,1.84047 -7.22207,3.52268 -8.34777,1.756 -9.81037,1.85037 -10.53392,0.67964 z m -271.08574,1.32967 c 5.97638,-0.67527 8.68571,-2.03418 6.66109,-3.34098 -1.07745,-0.69543 -13.5253,-2.16575 -20.1697,-2.38239 -4.7528,-0.15497 -24.76079,-2.59554 -26.14889,-3.18963 -1.38449,-0.59255 -1.70519,0.1001 -2,4.31966 -0.32076,4.59091 -0.17821,4.98701 1.64889,4.58176 1.1,-0.24398 6.95,-0.0832 13,0.3573 11.00307,0.80112 17.60667,0.7166 27.00861,-0.34572 z M 183.75,218.35202 c 6.07336,-0.7295 7.06087,-2.35202 1.4315,-2.35202 -2.10017,0 -6.03767,-0.63445 -8.75,-1.40988 -2.71232,-0.77543 -12.3565,-1.9064 -21.4315,-2.51325 -21.17659,-1.41611 -36.71239,-2.85081 -39.10985,-3.61173 C 114.61561,208.06061 114,208.34908 114,209.35082 c 0,0.81708 -0.27314,2.19741 -0.60699,3.06739 -0.50199,1.30817 0.23317,1.58275 4.25,1.58737 2.67135,0.003 6.65699,0.5093 8.85699,1.12496 9.67465,2.70743 44.98682,4.69446 57.25,3.22148 z m 175.65561,-3.70146 c 2.1091,-1.60135 5.14385,-2.57912 9.53087,-3.07076 3.54007,-0.39672 7.59007,-1.29385 9,-1.99362 1.40994,-0.69977 6.61352,-1.81934 11.56352,-2.48793 4.95,-0.66858 10.27397,-1.8642 11.83104,-2.65693 1.55707,-0.79273 3.35221,-1.44132 3.98921,-1.44132 1.59756,0 9.29054,-7.37284 14.56011,-13.95419 3.86351,-4.82526 8.24822,-13.02875 7.55945,-14.14319 -0.25509,-0.41275 -4.33741,1.7848 -9.07182,4.88346 -4.7344,3.09865 -8.13144,5.79277 -7.54898,5.98692 0.58247,0.19416 2.09897,-0.30348 3.37001,-1.10587 3.29907,-2.08264 6.81098,-2.9968 6.81098,-1.7729 0,1.61924 -8.72658,10.1807 -13.39436,13.14091 -5.17663,3.28292 -7.73598,3.81895 -23.60564,4.94391 -12.94591,0.9177 -21.53705,2.75487 -25.31258,5.41294 -5.66088,3.98541 -5.71466,4.07559 -4.44145,7.4487 0.65588,1.73762 1.38887,3.15931 1.62888,3.15931 0.24,0 1.82884,-1.05725 3.53076,-2.34944 z M 200.32339,213.25 c 0.24278,-0.4125 0.7223,-2.1 1.06561,-3.75 0.60362,-2.90111 0.31966,-3.1813 -8.61408,-8.5 -13.75689,-8.19016 -13.39846,-8.10866 -24.77492,-5.63344 -4.125,0.89749 -9.58254,1.63217 -12.12788,1.63262 C 150.97254,197.00005 144,194.64343 144,192.98658 144,192.44396 143.5094,192 142.90978,192 c -1.76849,0 -8.86519,-5.38934 -8.88843,-6.75 -0.0117,-0.6875 0.39412,-1.25 0.90192,-1.25 0.90739,0 6.61554,4.40322 8.57673,6.61601 2.50363,2.82482 12.66409,4.36671 16.26357,2.46806 8.48249,-4.47435 19.59682,-6.85129 24.32646,-5.20253 1.76463,0.61515 4.1965,1.11846 5.40416,1.11846 1.20765,0 4.98069,1.8 8.38452,4 3.40382,2.2 6.55444,4 7.00136,4 0.44693,0 2.46618,-3.21458 4.48724,-7.14351 3.5719,-6.94376 3.62739,-7.21639 1.98438,-9.75 -2.38181,-3.67288 -7.9403,-10.2699 -14.22468,-16.88237 -2.95514,-3.10943 -6.51265,-7.4694 -7.90557,-9.68881 -2.9438,-4.69051 -8.33111,-11.64596 -12.6137,-16.28531 -2.26611,-2.45489 -2.59955,-3.25 -1.36292,-3.25 0.90043,0 1.91247,0.44549 2.24899,0.98998 0.6068,0.98182 16.11885,12.88204 23.93666,18.36323 2.23824,1.56927 5.41953,4.10639 7.06953,5.63805 1.65,1.53166 4.35106,3.46414 6.00236,4.29441 1.6513,0.83026 3.85854,2.45564 4.90499,3.61195 1.04644,1.15631 2.68303,2.10238 3.63685,2.10238 2.47928,0 5.645,-3.05856 6.33743,-6.1229 0.51008,-2.25738 0.002,-3.01052 -3.64448,-5.40437 -2.33043,-1.5298 -5.36215,-3.61606 -6.73715,-4.63612 -1.375,-1.02007 -4.975,-3.13222 -8,-4.69368 -3.025,-1.56146 -8.425,-4.72346 -12,-7.02668 -3.575,-2.30321 -7.7375,-4.72025 -9.25,-5.37119 -1.5125,-0.65095 -2.75,-1.53488 -2.75,-1.9643 C 187,133.35134 186.26683,133 185.37073,133 c -0.89609,0 -5.822,-2.12409 -10.94646,-4.7202 -5.12446,-2.59611 -9.61538,-4.42202 -9.97983,-4.05757 -0.36444,0.36444 0.28647,1.9955 1.44647,3.62457 1.16,1.62907 2.10909,3.20007 2.10909,3.49112 0,0.97133 6.39217,11.08671 10.97358,17.36531 2.48953,3.41178 7.45142,10.51383 11.02642,15.78233 3.575,5.2685 8.8625,12.72134 11.75,16.56187 4.59706,6.11434 6.76251,10.81725 4.5,9.77312 -4.78405,-2.20782 -10.19186,-6.65498 -10.21839,-8.40319 C 196.00505,180.66735 189.32883,174 187.60305,174 c -0.73169,0 -7.62696,-4.72913 -10.66864,-7.3171 -1.41108,-1.2006 -3.748,-2.8579 -5.19317,-3.6829 -8.11018,-4.62985 -20.37841,-12.39929 -21.24124,-13.45202 -0.55,-0.67105 -2.92909,-2.43499 -5.28688,-3.91986 -2.35778,-1.48487 -4.01872,-3.13365 -3.69098,-3.66394 0.8825,-1.42792 1.69764,-1.20063 4.61573,1.28704 1.45082,1.23683 4.52483,3.37378 6.83113,4.74878 2.30629,1.375 5.39425,3.43216 6.86213,4.57147 3.01928,2.34344 14.64531,9.42853 15.47142,9.42853 0.29751,0 3.56996,2.03119 7.27211,4.51375 3.70215,2.48256 6.97826,4.26666 7.28025,3.96467 0.7414,-0.7414 -14.6111,-15.12946 -18.25753,-17.1106 -3.27899,-1.78151 -21.12618,-14.37929 -23.93071,-16.89195 -3.63409,-3.25588 -0.57909,-2.70088 4.80287,0.87254 3.02483,2.00837 5.6702,3.65159 5.8786,3.65159 0.20841,0 3.70283,2.22737 7.76539,4.94971 11.13663,7.46272 10.21787,2.8796 -1.40247,-6.99603 -8.09645,-6.88082 -13.22439,-12.28257 -12.03603,-12.67869 0.52131,-0.17377 2.90756,1.49327 5.30279,3.70453 2.39523,2.21127 4.95508,4.02048 5.68857,4.02048 2.25375,0 1.48546,-3.91895 -1.66639,-8.5 -1.65,-2.39819 -3,-4.84177 -3,-5.43018 0,-1.51418 4.17997,-1.32838 6.52749,0.29015 1.08488,0.74798 4.22251,2.31022 6.97251,3.47164 3.79233,1.60164 4.40187,1.69584 2.52364,0.39003 -7.13288,-4.959 -12.62174,-11.23307 -9.80882,-11.21203 1.9718,0.0148 14.6003,9.83253 15.24,11.84804 0.58751,1.85107 6.38104,6.63982 7.12859,5.89227 0.23441,-0.23441 -2.61347,-4.14669 -6.32861,-8.69397 -9.35446,-11.44973 -11.26653,-14.22795 -10.56897,-15.35663 0.63845,-1.03303 8.27006,6.86938 13.62636,14.10986 8.08108,10.92376 10.9459,14.35263 12.4851,14.94327 0.91262,0.35021 2.73518,1.91534 4.05013,3.47806 1.31495,1.56273 3.68721,3.51172 5.2717,4.33109 2.71668,1.40485 2.88088,1.3743 2.88088,-0.53592 0,-2.87891 1.51987,-2.5087 4,0.97432 1.1749,1.65 2.75503,3 3.51139,3 0.75636,0 2.00374,0.89737 2.77196,1.99415 1.18447,1.69107 9.77663,7.00585 11.32603,7.00585 0.27695,0 -0.86298,-1.6875 -2.53319,-3.75 -1.6702,-2.0625 -5.74374,-7.4625 -9.05231,-12 C 215.71532,135.7125 212.33144,132 211.50416,132 210.67687,132 210,131.53676 210,130.97058 c 0,-0.56618 -1.6875,-3.23065 -3.75,-5.92104 -10.43013,-13.60541 -16.95354,-22.63647 -18.81987,-26.054399 l -2.06988,-3.790674 -7.43012,5.467493 c -10.6422,7.83111 -27.34622,25.08972 -34.19281,35.32804 -0.9195,1.375 -2.99517,4.36775 -4.61261,6.65056 -3.33845,4.71179 -12.74492,23.10608 -16.02279,31.33246 -2.16461,5.43245 -2.16557,5.46243 -0.10439,3.25 1.65092,-1.77205 3.18244,-2.23302 7.41898,-2.23302 3.52547,0 5.7614,0.50944 6.58349,1.5 0.68469,0.825 1.75229,1.50194 2.37244,1.5043 0.62016,0.002 3.47319,1.78269 6.34007,3.95628 2.86689,2.17358 6.41969,4.08415 7.89511,4.24569 5.37596,0.58864 3.17475,-1.79659 -5.18703,-5.62066 -4.70761,-2.15291 -10.21558,-5.24391 -12.23994,-6.86889 -2.02436,-1.62498 -4.91815,-3.39503 -6.43065,-3.93344 -1.5125,-0.53841 -2.75,-1.35835 -2.75,-1.82209 0,-1.63278 1.98323,-2.04053 4.18736,-0.86092 1.22577,0.65602 3.14757,1.23933 4.27066,1.29624 1.12309,0.0569 2.04198,0.77583 2.04198,1.59757 0,0.89324 2.81508,2.71831 7,4.53825 3.85,1.67429 9.57427,4.439 12.7206,6.14381 4.84359,2.62445 5.90091,2.88238 6.89677,1.68244 1.47393,-1.77598 -1.66094,-5.40743 -7.00963,-8.12 -1.98426,-1.0063 -6.65653,-3.49666 -10.38282,-5.53411 C 142.99862,166.66701 139.55739,165 139.07774,165 137.60453,165 132,159.63632 132,158.22642 c 0,-0.86054 1.17755,-0.43004 3.34439,1.22269 1.83942,1.40299 4.26872,2.55089 5.39846,2.55089 2.45137,0 11.96897,4.87964 17.61221,9.02973 2.22142,1.63365 4.59263,2.97027 5.26936,2.97027 0.67673,0 2.11534,1.125 3.19692,2.5 1.98847,2.52794 4.88402,3.06106 8.64318,1.59138 3.25002,-1.27063 -3.5504,-5.72159 -25.53189,-16.71092 -2.51205,-1.25586 -5.06948,-3.38541 -5.68318,-4.73232 -0.65493,-1.43742 -2.58904,-2.93514 -4.68263,-3.62609 -4.52343,-1.49286 -4.77638,-3.44662 -0.3195,-2.46773 1.78603,0.39228 4.97716,2.19391 7.0914,4.00362 2.11424,1.80971 7.06544,4.9709 11.00268,7.02486 3.93723,2.05397 8.23179,4.5631 9.54346,5.57584 1.31167,1.01275 3.0692,1.84136 3.90561,1.84136 0.83641,0 2.91322,1.03769 4.61514,2.30599 1.70191,1.26829 6.58189,4.03323 10.84439,6.14431 4.2625,2.11108 7.75,4.19127 7.75,4.62266 0,1.0851 -7.86783,0.39564 -11.41226,-1.00007 -2.79586,-1.10093 -11.48013,-0.53804 -12.58774,0.81591 -0.90872,1.11083 -13.44995,6.97171 -16.11904,7.5329 -2.58118,0.54271 -4.13236,-0.3547 -13.11752,-7.58886 -1.93498,-1.5579 -4.51981,-2.33226 -8.82443,-2.64363 -7.3011,-0.52812 -8.97314,0.59947 -4.92418,3.32075 1.6199,1.08873 3.46126,3.22521 4.09191,4.74772 0.98594,2.38028 7.78051,8.88064 11.62066,11.11747 2.90905,1.69449 14.97747,5.62485 17.27145,5.62485 1.37913,0 5.43108,-0.83061 9.00433,-1.84579 6.77426,-1.92462 10.62007,-1.52126 14.07556,1.47628 0.86831,0.75323 1.99331,1.38667 2.5,1.40765 0.50669,0.021 3.39626,2.04416 6.42126,4.49595 5.34822,4.3348 7.41585,5.25787 8.32339,3.71591 z m 3.72052,-78.68617 c -1.67869,-2.4399 -5.56908,-7.0524 -8.6453,-10.25 -3.07623,-3.19761 -6.77252,-7.38883 -8.21398,-9.31383 -1.44145,-1.925 -3.87268,-4.97816 -5.40273,-6.7848 -2.64648,-3.1249 -3.93653,-8.04683 -1.75584,-6.69909 0.56434,0.34878 3.24373,3.41283 5.95421,6.80902 2.71048,3.39618 6.32088,7.74987 8.0231,9.67487 3.81688,4.31641 12.23911,15.70589 13.86514,18.75 2.14992,4.02487 -0.654,2.42213 -3.8246,-2.18617 z m -16.3358,77.06051 C 186.92315,209.26946 175.00559,206.93132 161,206.3844 151.66561,206.01989 142.3084,204.95994 134.73408,203.40908 128.26283,202.08409 121.62533,201 119.98408,201 117.86561,201 117,200.51654 117,199.33333 c 0,-2.53477 -0.66058,-1.24457 -1.36532,2.66667 l -0.63065,3.5 6.06367,0.26048 c 3.33502,0.14327 8.0362,0.70254 10.44708,1.24283 2.41087,0.54029 7.66881,1.22145 11.68431,1.5137 4.0155,0.29224 10.22591,0.99099 13.80091,1.55277 15.15626,2.38168 31.25549,3.19668 30.70811,1.55456 z m 231.60815,-8.47704 c 1.75106,0.15873 7.72424,-0.30129 13.27375,-1.02225 l 10.09001,-1.31085 -0.98313,-4.29627 -0.98312,-4.29628 -3.14987,1.3161 c -1.73242,0.72385 -6.05552,1.61466 -9.60688,1.97958 -5.07719,0.5217 -14.12408,3.6483 -17.84952,6.16879 -0.21588,0.14605 0.16888,0.94197 0.855,1.7687 0.94794,1.1422 1.71847,1.2511 3.20876,0.45352 1.07869,-0.57729 3.39394,-0.91976 5.145,-0.76104 z m -279.35191,-4.69025 c -1.03896,-1.25188 -5.8949,-2.90351 -16.21435,-5.51494 -4.45998,-1.12864 -5.75743,-2.20145 -3.98626,-3.29609 0.42005,-0.25961 2.72279,0.42609 5.1172,1.52377 8.0117,3.67286 7.39795,-1.73906 -0.68798,-6.06652 -1.20613,-0.6455 -2.19296,-2.1328 -2.19296,-3.30512 0,-1.17232 -0.2309,-1.90059 -0.51311,-1.61838 -0.9108,0.9108 -5.27585,16.81956 -4.62047,16.83967 2.66674,0.0818 20.40056,2.9142 20.81005,3.32369 0.28548,0.28549 1.16155,0.27252 1.94682,-0.0288 1.05476,-0.40475 1.14386,-0.88996 0.34106,-1.85727 z M 377.5,193.30465 c 9.35,-0.12371 18.15461,-0.44004 19.56581,-0.70295 2.49717,-0.46524 11.23835,-5.63088 10.6032,-6.26602 -0.17475,-0.17475 -2.89372,0.35323 -6.04216,1.17329 -7.24772,1.8878 -13.71583,1.89852 -18.18747,0.0301 -1.92301,-0.80349 -6.74606,-1.7518 -10.71788,-2.10735 -6.39741,-0.5727 -7.87884,-0.35469 -12.98175,1.91038 -6.60734,2.93286 -12.24653,8.34229 -10.67307,10.2382 0.76353,0.91999 2.23932,0.5824 6.21725,-1.42222 4.95127,-2.49511 6.07909,-2.63997 22.21607,-2.85348 z m -28.25,-1.75125 c 1.5125,-1.8956 2.77859,-3.80809 2.81354,-4.24997 0.0349,-0.44189 2.27084,-3.50343 4.96866,-6.80343 C 365.43321,170.22379 373,160.18572 373,159.31718 c 0,-0.45754 2.3625,-3.63111 5.25,-7.05237 8.49731,-10.06805 13.75,-17.0655 13.75,-18.31725 0,-0.64302 -0.82087,-0.1554 -1.82415,1.08361 -1.00329,1.239 -2.46362,2.03957 -3.24519,1.77905 -1.03402,-0.34467 -0.49487,-1.39985 1.97956,-3.87429 2.69833,-2.69833 3.5234,-3.0838 3.99519,-1.86653 0.46664,1.20394 1.20758,0.82354 3.44308,-1.76767 3.14749,-3.64831 1.90122,-4.42991 -2.07562,-1.30173 -1.39842,1.1 -3.11168,2 -3.80724,2 -0.69556,0 -3.54684,1.5358 -6.33619,3.41289 -2.78935,1.87709 -6.77207,3.97086 -8.85049,4.65282 -2.07842,0.68195 -5.35395,2.29711 -7.27895,3.58923 -1.925,1.29212 -5.075,3.40363 -7,4.69226 -1.925,1.28862 -6.425,3.87516 -10,5.74787 -3.575,1.87271 -10.03518,5.76743 -14.35595,8.65493 -4.32077,2.8875 -8.25827,5.25 -8.75,5.25 -1.6028,0 -0.94546,2.24381 1.65684,5.65561 2.9827,3.91052 4.18777,4.1993 4.62956,1.10942 0.2072,-1.4492 1.90166,-3.10265 4.81955,-4.7029 2.475,-1.35736 5.32016,-3.50162 6.32258,-4.76503 1.00242,-1.2634 2.49082,-2.2971 3.30756,-2.2971 2.00835,0 10.50783,-4.70651 12.36986,-6.84969 1.31026,-1.50811 8.34027,-6.6841 13.10701,-9.65031 0.88386,-0.55 3.46242,-2.2375 5.73013,-3.75 4.71508,-3.14482 5.16286,-3.26453 5.16286,-1.38021 0,0.75338 -3.0375,3.90713 -6.75,7.00832 -3.7125,3.1012 -7.875,7.06808 -9.25,8.81529 -1.375,1.74721 -3.11451,3.65596 -3.86558,4.24167 -0.75106,0.58571 -2.55106,2.35917 -4,3.94101 -1.44893,1.58185 -6.57192,6.93878 -11.38442,11.9043 -4.8125,4.96551 -8.75,9.45184 -8.75,9.96962 0,0.51778 0.6397,2.13585 1.42156,3.59571 0.78186,1.45986 1.66774,3.44179 1.96862,4.40429 0.78956,2.52576 1.76154,2.18644 4.85982,-1.6966 z m 89.05939,-1.11863 c 1.19593,-0.45892 1.45443,-1.42011 1.01528,-3.77522 C 438.73306,183.48675 437,180.5502 437,182.72054 c 0,0.6163 -1.4625,1.42058 -3.25,1.78728 -5.20743,1.06828 -11.75,4.53619 -11.75,6.22812 0,1.32517 1.09688,1.46481 7.35248,0.93602 4.04386,-0.34183 8.07447,-0.89857 8.95691,-1.23719 z M 399.929,183.86143 c 1.96405,-0.62621 4.471,-1.51692 5.571,-1.97936 1.1,-0.46244 3.32268,-1.32133 4.9393,-1.90865 1.61661,-0.58733 6.62911,-3.29661 11.13888,-6.02064 4.50976,-2.72403 8.69958,-4.95278 9.3107,-4.95278 1.40316,0 1.39201,-0.5812 -0.0898,-4.679 -1.19001,-3.29092 -2.7961,-4.47785 -2.80237,-2.071 -0.002,0.6875 -3.10674,2.52272 -6.89989,4.07826 -3.79316,1.55555 -11.10419,5.59953 -16.24675,8.98663 -11.91259,7.84614 -11.22055,7.2767 -10.4192,8.57331 0.85191,1.37842 1.09459,1.37724 5.4981,-0.0268 z m -12.43382,-3.45044 c 2.19735,-0.39906 5.34735,-1.54323 7,-2.5426 1.65265,-0.99936 4.75334,-2.84109 6.89042,-4.09271 2.13708,-1.25162 4.61713,-2.72568 5.51122,-3.27568 8.60764,-5.29498 18.30216,-10.5 19.55659,-10.5 1.83579,0 1.9626,-1.3312 0.41114,-4.31574 -1.6342,-3.14369 -1.67867,-3.16128 -3.60842,-1.42793 -1.78723,1.60534 -7.92749,5.24694 -14.26891,8.46246 -1.93203,0.97966 -4.9265,2.79371 -6.65437,4.03121 -1.72788,1.2375 -3.78988,2.25 -4.58223,2.25 -0.79236,0 -2.25513,0.9 -3.25062,2 -0.99549,1.1 -2.15798,2 -2.58332,2 -0.42533,0 -3.50559,1.62759 -6.84501,3.61688 -6.14089,3.65811 -7.94771,6.0503 -3.82167,5.0598 1.2375,-0.29707 4.04783,-0.86663 6.24518,-1.26569 z M 371.5,178.47391 c 2.2,-1.35501 4.51288,-2.46597 5.13974,-2.46879 0.62686,-0.003 7.37686,-3.42814 15,-7.61184 C 406.69607,160.13014 414.89014,156 416.22765,156 c 0.46933,0 2.29761,-1.01098 4.06284,-2.24662 1.76523,-1.23564 3.3403,-2.30393 3.50015,-2.37397 C 424.23132,151.18632 419.87452,144 419.31677,144 c -0.26712,0 -3.03517,1.95597 -6.15122,4.3466 -3.11605,2.39063 -7.24055,5.10875 -9.16555,6.04027 -1.925,0.93153 -5.3,2.81024 -7.5,4.17492 -2.2,1.36469 -5.4625,3.22991 -7.25,4.14494 -1.7875,0.91503 -3.25,2.05511 -3.25,2.53351 0,0.4784 -2.41105,1.9361 -5.35789,3.23933 C 375.00249,170.97368 364,178.68528 364,180.14397 c 0,1.58443 3.47085,0.81157 7.5,-1.67006 z m 64.91473,1.66406 c 0.29302,-0.47412 -0.2236,-2.78757 -1.14806,-5.141 l -1.68082,-4.27896 -1.71876,3.89099 c -0.94532,2.14005 -1.75214,4.4535 -1.79293,5.141 -0.0838,1.41286 5.49614,1.75428 6.34057,0.38797 z m -51.03568,-18.62409 c 5.01652,-2.46737 11.37095,-6.1837 14.12095,-8.25851 2.75,-2.07482 7.57231,-5.31694 10.71624,-7.20471 3.14393,-1.88777 5.95481,-4.05404 6.24641,-4.81393 0.62637,-1.6323 -1.10589,-5.23673 -2.51673,-5.23673 -1.81992,0 -12.30563,6.03092 -17.87937,10.28342 -3.03966,2.31912 -6.05085,4.44158 -6.69153,4.71658 -1.25873,0.54028 -9.36503,8.07354 -13.29933,12.35919 -3.46757,3.77723 -1.22288,3.332 9.30336,-1.84531 z M 322.04011,159.75 c 5.42758,-13.75147 7.75316,-17.25494 18.23516,-27.47116 11.74316,-11.4454 11.56207,-11.01473 11.89043,-28.27884 0.0785,-4.125 0.46583,-8.4 0.86082,-9.5 0.395,-1.1 0.32904,-3.042448 -0.14656,-4.316551 l -0.86475,-2.316552 -4.96608,2.702879 c -5.09814,2.774754 -9.4038,7.871274 -10.99729,13.017264 -2.80697,9.06479 -5.14308,13.45157 -9.46494,17.77343 -2.59335,2.59335 -6.00188,4.97253 -7.5745,5.28705 -3.36706,0.67341 -13.02988,8.99238 -15.81871,13.61872 -4.03888,6.70004 -3.02773,17.33069 1.30631,13.73376 0.825,-0.68469 1.5,-1.90374 1.5,-2.709 0,-0.80526 2.62179,-4.23766 5.82621,-7.62755 3.20441,-3.3899 6.81702,-7.60062 8.02802,-9.35717 1.211,-1.75655 4.72108,-4.90655 7.8002,-7 6.42863,-4.37076 10.22162,-10.45241 12.2396,-19.62491 C 341.26999,101.42711 344.76536,94 346.33281,94 c 1.16282,0 0.0996,18.85024 -1.3618,24.14284 -0.96134,3.48169 -2.42322,5.03191 -15.42487,16.35716 -5.57257,4.85405 -9.05185,9.90657 -10.01134,14.5382 -0.39443,1.90399 -1.35709,5.40761 -2.13924,7.78582 -1.5635,4.75398 -1.20842,6.17598 1.54214,6.17598 1.12316,0 2.31065,-1.24399 3.10241,-3.25 z m 10.45438,-1.73264 c 0.31384,-0.98883 3.93097,-6.17593 8.03807,-11.52688 C 344.63965,141.13953 348,136.14014 348,135.38074 348,134.62133 348.37577,134 348.83504,134 c 1.12143,0 13.82617,-15.79011 19.71507,-24.50291 2.6011,-3.8484 5.56641,-7.92609 6.58958,-9.06154 C 376.16286,99.300101 377,98.117195 377,97.806869 c 0,-0.704783 -5.95029,-3.217128 -6.37453,-2.691471 -0.17072,0.211531 -2.06879,3.692376 -4.21794,7.735212 -2.14914,4.04284 -5.14503,8.23598 -6.65753,9.31809 -1.5125,1.08212 -2.75,2.37811 -2.75,2.87998 0,2.33008 -7.73464,12.57366 -15.34428,20.3216 -4.61921,4.70316 -9.35642,10.58897 -10.52714,13.07956 -2.53067,5.38377 -2.94525,12.80078 -0.66665,11.92639 0.80407,-0.30854 1.71872,-1.37004 2.03256,-2.35887 z m 9.40844,-5.40039 c 0.63129,-0.76067 3.99627,-3.04888 7.47771,-5.0849 4.06598,-2.37788 6.88957,-4.83388 7.89471,-6.86697 1.65675,-3.35107 11.08724,-15.41201 21.47465,-27.46455 3.4375,-3.98855 6.25,-7.65769 6.25,-8.15365 0,-1.32727 -5.1593,-5.156528 -6.41913,-4.76431 -0.59448,0.18508 -1.77878,1.65971 -2.63179,3.27696 -3.2213,6.1074 -11.01935,17.124 -15.53043,21.94045 -2.57565,2.75 -5.39626,6.125 -6.26803,7.5 -1.41857,2.23745 -11.88032,16.58597 -14.40005,19.75 -1.40769,1.76764 0.68214,1.63847 2.15236,-0.13303 z m 55.01073,-10.8939 c 5.5001,-3.09234 11.54862,-7.1382 11.91967,-7.97307 0.18334,-0.4125 0.97084,-0.75 1.75,-0.75 1.96482,0 1.79421,-0.59359 -1.10621,-3.84882 -1.38758,-1.55732 -3.17327,-3.69093 -3.96819,-4.74134 -1.25082,-1.65282 -1.4496,-1.68642 -1.47713,-0.24964 -0.0175,0.91311 -1.8318,3.93738 -4.0318,6.72058 -2.2,2.78321 -4,5.50548 -4,6.0495 0,0.54401 -1.8,2.65453 -4,4.69005 -4.54303,4.20337 -5.33091,6.48173 -1.33634,3.86439 1.46501,-0.95991 4.27751,-2.65266 6.25,-3.76165 z m -94.00953,-8.94731 c 1.37981,-5.0062 2.53135,-15.28084 4.57001,-40.77576 0.81363,-10.175 1.7107,-19.462026 1.99349,-20.637836 0.42388,-1.762429 -0.011,-2.21492 -2.47673,-2.576807 -2.22265,-0.326216 -3.01038,-0.03395 -3.06674,1.137836 -0.32383,6.732456 -1.96638,26.041835 -2.77115,32.576807 -0.54184,4.4 -1.21247,12.95 -1.49027,19 -0.73305,15.9646 0.63622,20.72785 3.24139,11.27576 z m 66.75367,2.75137 c 3.31454,-2.32159 10.35901,-9.65518 16.22334,-16.88918 2.95963,-3.65087 5.85633,-6.63795 6.4371,-6.63795 0.58077,0 -0.23744,-1.35 -1.81824,-3 -3.39172,-3.5402 -4.5,-3.76174 -4.5,-0.89955 0,1.15525 -2.0108,4.19275 -4.46844,6.75 C 377.2635,119.2915 365,135.31984 365,136.45713 c 0,1.04404 2.57289,0.53033 4.6578,-0.93 z M 261.42253,132.25 c -0.33856,-1.5125 -1.66708,-7.025 -2.95226,-12.25 -1.28517,-5.225 -2.85149,-11.975 -3.4807,-15 -3.08566,-14.834667 -3.98198,-19.083466 -5.52333,-26.182238 -0.91742,-4.22523 -1.39701,-8.120764 -1.06576,-8.656741 0.33126,-0.535977 -0.18584,-0.818574 -1.1491,-0.627993 -0.96326,0.190581 -2.95047,0.597548 -4.41603,0.904371 l -2.66465,0.557861 1.71528,4.75237 c 1.58005,4.37771 2.47981,8.016477 5.00785,20.25237 0.51136,2.475 2.08118,8.99076 3.48849,14.47946 1.65406,6.45102 2.2156,10.32262 1.58822,10.95 C 251.34315,122.05685 251,121.6466 251,120.26917 c 0,-1.17196 -1.09925,-5.64946 -2.44278,-9.95 C 247.21369,106.01863 245.22968,98.675 244.14831,94 c -4.81634,-20.82201 -5.23717,-22 -7.85939,-22 -1.83755,0 -2.29931,0.423219 -1.90936,1.75 1.95368,6.647337 5.70886,21.878152 6.49962,26.36211 0.52259,2.96334 1.65822,7.86289 2.52363,10.88789 0.8654,3.025 1.57879,6.92788 1.58532,8.67308 0.008,2.20136 0.95631,4.11752 3.09589,6.25709 3.28608,3.28609 5.41617,3.22116 4.35172,-0.13264 -1.22339,-3.85455 1.85232,-1.32838 3.23094,2.65367 1.58569,4.58016 3.08117,6.5488 4.97482,6.5488 1.00613,0 1.2245,-0.76886 0.78103,-2.75 z m 3.26268,-11.5 c -0.3248,-7.8375 -0.79963,-15.6 -1.05517,-17.25 -0.25554,-1.65 -0.78846,-7.05 -1.18427,-12 -0.39582,-4.95 -0.83915,-9.675 -0.98519,-10.5 -0.14604,-0.825 -0.59529,-3.975 -0.99834,-7 -0.40305,-3.025 -1.16563,-5.778561 -1.69462,-6.119025 -0.529,-0.340463 -2.7406,-0.16752 -4.91467,0.384318 -4.55345,1.15579 -4.57415,-0.945257 0.19441,19.734707 1.5853,6.875 3.0854,15.02375 3.33356,18.10833 0.24816,3.08459 1.37283,8.59221 2.49926,12.23917 1.12644,3.64697 2.34718,8.88572 2.71277,11.64167 0.36559,2.75596 1.11878,5.01083 1.67376,5.01083 0.65916,0 0.80427,-4.94129 0.4185,-14.25 z m -50.16745,4.51985 c -0.60059,-4.00501 -3.25838,-9.41599 -5.53558,-11.26985 -1.37107,-1.11618 -6.75559,-9.65144 -7.41257,-11.75 C 201.1822,101.0125 200.50535,100 200.0655,100 199.09581,100 194,92.456833 194,91.02144 194,90.459648 194.67218,90 195.49373,90 c 1.73977,0 5.06784,4.599455 11.92395,16.47909 4.85464,8.41167 6.58307,10.18984 6.58153,6.77091 -0.001,-2.31787 -5.20009,-13.22332 -8.83201,-18.525931 -1.59126,-2.323238 -3.20019,-5.205109 -3.5754,-6.404157 -0.65553,-2.094854 -0.82297,-2.121271 -4.28274,-0.675684 -1.9803,0.827422 -4.24505,2.148908 -5.03278,2.936636 -0.78773,0.787728 -2.28683,1.889599 -3.33134,2.448602 -1.80148,0.964122 -1.81032,1.110281 -0.17202,2.843167 C 192.62707,99.949309 202,113.21551 202,114.5939 c 0,0.38701 1.9125,3.05732 4.25,5.93402 2.3375,2.87671 4.91184,6.18476 5.72076,7.35123 2.37702,3.42769 3.30911,2.4728 2.547,-2.6093 z m 176.11054,0.24637 c 4.62747,-2.50202 8.97312,-4.22266 9.83219,-3.89301 2.57299,0.98735 1.73132,-1.04497 -1.88394,-4.54902 l -3.42346,-3.31814 -3.29939,3.87197 c -1.81467,2.12959 -5.3268,5.78448 -7.80475,8.12198 -2.47795,2.3375 -3.87715,4.25 -3.10935,4.25 0.76781,0 5.12772,-2.0177 9.6887,-4.48378 z m -78.93283,0.98794 c 0.10752,-0.034 0.69483,-3.18759 1.30515,-7.00803 0.61032,-3.82044 1.50964,-7.19345 1.9985,-7.49558 1.02011,-0.63047 2.69148,-11.77276 4.05013,-27.00055 0.51525,-5.775 1.14531,-11.048089 1.40012,-11.717975 0.58211,-1.53037 -0.0827,-1.935002 -4.55847,-2.77467 l -3.59387,-0.674214 -0.70195,5.833429 c -0.94555,7.857828 -2.44147,27.17344 -3.23952,41.82939 -0.63591,11.67814 -0.60291,11.9572 1.24561,10.53297 1.04436,-0.80465 1.98679,-1.49079 2.0943,-1.52477 z m 7.64195,-4.32451 c 0.90607,-1.0012 2.76939,-6.355 4.14071,-11.89733 1.37131,-5.54234 2.98361,-11.360682 3.58287,-12.92965 0.59926,-1.568969 2.11779,-7.194691 3.3745,-12.501606 l 2.28493,-9.648936 -4.61022,-1.487841 c -2.53561,-0.818312 -4.76914,-1.34236 -4.96339,-1.164551 -0.19425,0.177809 -0.54968,4.064359 -0.78984,8.636777 -0.24017,4.572418 -0.90073,9.767189 -1.46792,11.543937 -0.56719,1.776747 -0.82155,3.576747 -0.56524,4 0.73354,1.211292 -1.10089,11.31116 -3.31094,18.22924 -1.10708,3.46547 -2.01288,6.91723 -2.01288,7.67058 0,1.94495 2.3946,1.69617 4.33742,-0.45062 z M 242.39674,115.75 c -0.3448,-2.3375 -1.41949,-6.74238 -2.38821,-9.78862 -0.96872,-3.04624 -2.07519,-7.546242 -2.45883,-10.000001 -0.38363,-2.453758 -1.85037,-8.545047 -3.25942,-13.536197 l -2.56191,-9.074819 -3.88932,1.03812 c -2.91961,0.779289 -3.72716,1.42126 -3.23891,2.574818 0.35774,0.845185 0.96747,3.111699 1.35496,5.036699 0.66424,3.299799 2.14222,6.606447 8.26896,18.5 1.41661,2.75 3.11949,7.7 3.78418,11 0.66468,3.3 1.66485,6.5625 2.22258,7.25 1.94229,2.39419 2.78867,1.22188 2.16592,-3 z m 55.75104,-9.87879 c 0.54461,-5.70417 1.18739,-12.17121 1.4284,-14.37121 0.241,-2.2 0.6808,-8.606375 0.97732,-14.236388 0.44153,-8.383284 0.29264,-10.1418 -0.82247,-9.713893 -0.74888,0.287372 -2.45722,0.114967 -3.79631,-0.383121 L 293.5,66.260982 292.49129,80.880491 c -0.89747,13.007259 -0.7901,15.857565 0.97359,25.845909 1.09778,6.21701 2.36391,10.84481 2.83751,10.37121 0.47036,-0.47036 1.30078,-5.52224 1.84539,-11.2264 z M 328.70139,113.5 c 0.91797,-1.925 1.98109,-3.5 2.3625,-3.5 0.85829,0 1.73977,-2.35977 6.53706,-17.5 2.09126,-6.6 4.19193,-12.270327 4.66816,-12.600726 0.80805,-0.560614 -2.9912,-2.474214 -6.18481,-3.115152 -1.53322,-0.307708 -2.22973,1.87857 -4.52894,14.215878 -0.76874,4.125 -2.55819,11.54684 -3.97654,16.49297 -2.99971,10.46072 -2.84296,9.50703 -1.56264,9.50703 0.5589,0 1.76724,-1.575 2.68521,-3.5 z M 270.77703,94.2441 c 1.55591,-5.879332 1.62651,-7.577568 0.55055,-13.2441 -0.67882,-3.575 -1.25523,-8.1875 -1.2809,-10.25 -0.0458,-3.680506 -0.11853,-3.75 -3.92384,-3.75 h -3.87717 l 0.46453,4.75 c 0.25549,2.6125 1.10021,9.216761 1.87716,14.676135 0.77695,5.459375 1.41759,12.209375 1.42365,15.000005 0.006,2.79062 0.32701,6.87386 0.71325,9.07386 0.68423,3.89737 0.72234,3.82666 1.48513,-2.7559 0.43058,-3.71575 1.58601,-9.790745 2.56764,-13.5 z m 88.34103,14.47465 c 1.43994,-1.80465 3.62987,-5.29214 4.86651,-7.74997 1.23665,-2.457829 2.94724,-5.263437 3.80132,-6.234684 1.41271,-1.606514 1.38164,-1.891113 -0.34427,-3.153128 -1.71011,-1.250463 -2.21564,-1.027075 -5.12776,2.265904 -1.77683,2.00922 -3.24934,4.03215 -3.27223,4.495399 -0.0229,0.463249 -0.94163,1.986439 -2.04163,3.384859 -1.93652,2.46189 -2.88697,10.2729 -1.25,10.27284 0.4125,-2e-5 1.92813,-1.47656 3.36806,-3.28122 z M 212.60438,98.634155 c -0.92639,-2.425738 -2.23687,-7.119063 -2.91216,-10.42961 l -1.2278,-6.019177 -3.22801,1.357276 -3.22801,1.357276 2.15931,3.80004 c 5.97422,10.513659 9.0996,15.36606 9.58469,14.88098 0.29499,-0.295 -0.22162,-2.52105 -1.14802,-4.946785 z M 358,96.182274 c 0,-0.86506 1.16608,-2.789962 2.59129,-4.277561 l 2.59129,-2.704725 -6.34129,-3.537407 C 351.17181,82.499938 345.68367,80 344.41015,80 c -0.6126,0 -1.98745,3.728112 -2.86834,7.777949 l -0.713,3.277948 3.72514,-2.527948 c 2.04883,-1.390372 4.22485,-2.534094 4.8356,-2.541604 0.61075,-0.0075 2.03704,-0.262528 3.16954,-0.566707 2.79204,-0.749916 4.81267,3.47236 3.41767,7.141499 C 355.43954,93.974121 355,96.281005 355,97.687544 c 0,2.159814 0.23317,2.363826 1.5,1.312456 0.825,-0.684689 1.5,-1.952666 1.5,-2.817726 z m -67.8804,-24.08612 0.25919,-5.403846 -4.43939,0.01785 c -5.14499,0.02069 -5.20538,0.390681 -1.39233,8.530559 1.35501,2.892603 2.78065,7.059278 3.16809,9.259278 l 0.70443,4 L 289.14,83 c 0.39623,-3.025 0.83705,-7.931731 0.9796,-10.903846 z m -66.7928,9.246623 -1.61464,-5.049111 -4.85608,2.051635 c -5.24255,2.214915 -6.01782,3.141579 -2.82926,3.381766 1.11475,0.08397 3.92725,1.227152 6.25,2.540401 2.32275,1.313248 4.32251,2.328481 4.4439,2.256072 0.1214,-0.07241 -0.50586,-2.403752 -1.39392,-5.180763 z M 278.9532,66.5 c 0.0257,0 -1.7532,0 -3.9532,0 -2.2,0 -3.99749,0.225 -3.99442,0.5 0.003,0.275 0.40939,2.075 0.90295,4 0.49355,1.925 1.21423,4.85 1.6015,6.5 0.66229,2.821745 0.84353,2.584072 3.05025,-4 1.29036,-3.85 2.36718,-7 2.39292,-7 z"
       id="path1" />
  </g>
</svg>
